<?xml version="1.0" encoding="UTF-8"?>
<!DOCTYPE svg PUBLIC "-//W3C//DTD SVG 1.1//EN" "http://www.w3.org/Graphics/SVG/1.1/DTD/svg11.dtd">
<!-- Creator: CorelDRAW 2018 (64-Bit) -->
<svg xmlns="http://www.w3.org/2000/svg" xml:space="preserve" width="66.3218mm" height="66.3218mm" version="1.1" shape-rendering="geometricPrecision" text-rendering="geometricPrecision" image-rendering="optimizeQuality" fill-rule="evenodd" clip-rule="evenodd"
viewBox="0 0 4390.5 4390.5"
 xmlns:xlink="http://www.w3.org/1999/xlink">
 <g id="Layer_x0020_1">
  <metadata id="CorelCorpID_0Corel-Layer"/>
  <g id="_1847675814864">
   <path fill="#FEFEFE" fill-rule="nonzero" d="M968.45 968.45l97.02 -627.23c5.57,-35.99 39.26,-60.65 75.25,-55.09 4.78,0.74 9.36,1.98 13.7,3.65l591.73 229.55 397.66 -494.69c22.85,-28.41 64.42,-32.93 92.83,-10.08 4.11,3.3 7.72,7 10.82,11l396.92 493.77 591.72 -229.58c33.99,-13.13 72.2,3.77 85.34,37.75 2.08,5.38 3.4,10.87 4.03,16.34l96.61 624.59 627.23 97.02c35.99,5.57 60.65,39.26 55.09,75.25 -0.74,4.78 -1.98,9.36 -3.65,13.7l-229.55 591.73 494.69 397.66c28.41,22.85 32.93,64.42 10.08,92.83 -3.3,4.11 -7,7.72 -11,10.82l-493.77 396.92 229.58 591.72c13.13,33.99 -3.77,72.2 -37.75,85.34 -5.38,2.08 -10.87,3.4 -16.34,4.03l-624.59 96.61 -97.02 627.23c-5.57,35.99 -39.26,60.65 -75.25,55.09 -4.78,-0.74 -9.36,-1.98 -13.7,-3.65l-591.73 -229.55 -397.66 494.69c-22.85,28.41 -64.42,32.93 -92.83,10.08 -4.11,-3.3 -7.72,-7 -10.82,-11l-396.92 -493.77 -591.72 229.58c-33.99,13.13 -72.2,-3.77 -85.34,-37.75 -2.08,-5.38 -3.4,-10.87 -4.03,-16.34l-96.61 -624.59 -627.23 -97.02c-35.99,-5.57 -60.65,-39.26 -55.09,-75.25 0.74,-4.78 1.98,-9.36 3.65,-13.7l229.55 -591.73 -494.69 -397.66c-28.41,-22.85 -32.93,-64.42 -10.08,-92.83 3.3,-4.11 7,-7.72 11,-10.82l493.77 -396.92 -229.58 -591.72c-13.13,-33.99 3.77,-72.2 37.75,-85.34 5.38,-2.08 10.87,-3.4 16.34,-4.03l624.59 -96.61zm214.81 -525.95l-91.67 592.61c-3.81,28.19 -25.73,51.73 -55.27,56.3l-593.82 91.85 216.4 557.74c11.6,26.63 4.54,58.74 -19.18,77.81l-468.3 376.45 468.3 376.45c21.78,17.54 30.79,47.78 20.17,75.25l-217.39 560.3 592.61 91.67c28.19,3.81 51.73,25.73 56.3,55.27l91.85 593.82 557.74 -216.4c26.63,-11.6 58.74,-4.54 77.81,19.18l376.45 468.3 376.45 -468.3c17.54,-21.78 47.78,-30.79 75.25,-20.17l560.3 217.39 91.67 -592.61c3.81,-28.19 25.73,-51.73 55.27,-56.3l593.82 -91.85 -216.4 -557.74c-11.6,-26.63 -4.54,-58.74 19.18,-77.81l468.3 -376.45 -468.3 -376.45c-21.78,-17.54 -30.79,-47.78 -20.17,-75.25l217.39 -560.3 -592.61 -91.67c-28.19,-3.81 -51.73,-25.73 -56.3,-55.27l-91.85 -593.82 -557.74 216.4c-26.63,11.6 -58.74,4.54 -77.81,-19.18l-376.45 -468.3 -376.45 468.3c-17.54,21.78 -47.78,30.79 -75.25,20.17l-560.3 -217.39z"/>
   <path fill="#FEFEFE" fill-rule="nonzero" d="M695.46 2195.25l-317.42 -433.59c-21.56,-29.42 -15.19,-70.75 14.23,-92.32 3.95,-2.9 8.13,-5.29 12.44,-7.19l491.68 -216.86 -58.11 -534.36c-3.85,-36.27 22.43,-68.81 58.7,-72.67 5.2,-0.55 10.32,-0.48 15.29,0.15l533.04 57.96 216.8 -491.71c14.7,-33.42 53.73,-48.58 87.15,-33.88 5.51,2.42 10.53,5.51 14.99,9.13l431.01 315.54 433.59 -317.42c29.42,-21.56 70.75,-15.19 92.32,14.23 2.9,3.95 5.29,8.13 7.19,12.44l216.86 491.68 534.36 -58.11c36.27,-3.85 68.81,22.43 72.67,58.7 0.55,5.2 0.48,10.32 -0.15,15.29l-57.96 533.04 491.71 216.8c33.42,14.7 48.58,53.73 33.88,87.15 -2.42,5.51 -5.51,10.53 -9.13,14.99l-315.54 431.01 317.42 433.59c21.56,29.42 15.19,70.75 -14.23,92.32 -3.95,2.9 -8.13,5.29 -12.44,7.19l-491.68 216.86 58.11 534.36c3.85,36.27 -22.43,68.81 -58.7,72.67 -5.2,0.55 -10.32,0.48 -15.29,-0.15l-533.04 -57.96 -216.8 491.71c-14.7,33.42 -53.73,48.58 -87.15,33.88 -5.51,-2.42 -10.53,-5.51 -14.99,-9.13l-431.01 -315.54 -433.59 317.42c-29.42,21.56 -70.75,15.19 -92.32,-14.23 -2.9,-3.95 -5.29,-8.13 -7.19,-12.44l-216.86 -491.68 -534.36 58.11c-36.27,3.85 -68.81,-22.43 -72.67,-58.7 -0.55,-5.2 -0.48,-10.32 0.15,-15.29l57.96 -533.04 -491.71 -216.8c-33.42,-14.7 -48.58,-53.73 -33.88,-87.15 2.42,-5.51 5.51,-10.53 9.13,-14.99l315.54 -431.01zm-162.28 -445.29l296.68 405.25c17.3,22.69 18.45,54.91 0.73,79.09l-297.41 406.25 460.74 203.15c25.59,11.31 42.16,38.18 39.05,67.5l-54.46 500.8 497.6 -54.11c28.9,-4.53 58.36,10.66 70.7,38.7l203.15 460.74 405.25 -296.68c22.69,-17.3 54.91,-18.45 79.09,-0.73l406.25 297.41 203.15 -460.74c11.31,-25.59 38.18,-42.16 67.5,-39.05l500.8 54.46 -54.11 -497.6c-4.53,-28.9 10.66,-58.36 38.7,-70.7l460.74 -203.15 -296.68 -405.25c-17.3,-22.69 -18.45,-54.91 -0.73,-79.09l297.41 -406.25 -460.74 -203.15c-25.59,-11.31 -42.16,-38.18 -39.05,-67.5l54.46 -500.8 -497.6 54.11c-28.9,4.53 -58.36,-10.66 -70.7,-38.7l-203.15 -460.74 -405.25 296.68c-22.69,17.3 -54.91,18.45 -79.09,0.73l-406.25 -297.41 -203.15 460.74c-11.31,25.59 -38.18,42.16 -67.5,39.05l-500.8 -54.46 54.11 497.6c4.53,28.9 -10.66,58.36 -38.7,70.7l-460.74 203.15z"/>
   <path fill="#FEFEFE" fill-rule="nonzero" d="M1301.22 1301.22l67.3 -435.1c5.57,-35.99 39.26,-60.65 75.25,-55.09 4.78,0.74 9.36,1.98 13.7,3.65l410.49 159.23 275.84 -343.16c22.85,-28.41 64.42,-32.93 92.83,-10.08 4.11,3.3 7.72,7 10.82,11l275.11 342.25 410.47 -159.26c33.99,-13.13 72.2,3.77 85.34,37.75 2.08,5.38 3.4,10.87 4.03,16.34l66.89 432.46 435.1 67.3c35.99,5.57 60.65,39.26 55.09,75.25 -0.74,4.78 -1.98,9.36 -3.65,13.7l-159.23 410.49 343.16 275.84c28.41,22.85 32.93,64.42 10.08,92.83 -3.3,4.11 -7,7.72 -11,10.82l-342.25 275.11 159.26 410.47c13.13,33.99 -3.77,72.2 -37.75,85.34 -5.38,2.08 -10.87,3.4 -16.34,4.03l-432.46 66.89 -67.3 435.1c-5.57,35.99 -39.26,60.65 -75.25,55.09 -4.78,-0.74 -9.36,-1.98 -13.7,-3.65l-410.49 -159.23 -275.84 343.16c-22.85,28.41 -64.42,32.93 -92.83,10.08 -4.11,-3.3 -7.72,-7 -10.82,-11l-275.11 -342.25 -410.47 159.26c-33.99,13.13 -72.2,-3.77 -85.34,-37.75 -2.08,-5.38 -3.4,-10.87 -4.03,-16.34l-66.89 -432.46 -435.1 -67.3c-35.99,-5.57 -60.65,-39.26 -55.09,-75.25 0.74,-4.78 1.98,-9.36 3.65,-13.7l159.23 -410.49 -343.16 -275.84c-28.41,-22.85 -32.93,-64.42 -10.08,-92.83 3.3,-4.11 7,-7.72 11,-10.82l342.25 -275.11 -159.26 -410.47c-13.13,-33.99 3.77,-72.2 37.75,-85.34 5.38,-2.08 10.87,-3.4 16.34,-4.03l432.46 -66.89zm185.09 -333.82l-61.95 400.48c-3.81,28.19 -25.73,51.72 -55.27,56.3l-401.69 62.14 146.08 376.5c11.6,26.63 4.54,58.74 -19.18,77.81l-316.77 254.63 316.77 254.63c21.78,17.54 30.79,47.78 20.17,75.25l-147.07 379.06 400.48 61.95c28.19,3.81 51.72,25.73 56.3,55.27l62.14 401.69 376.5 -146.08c26.63,-11.6 58.74,-4.54 77.81,19.18l254.63 316.77 254.63 -316.77c17.54,-21.78 47.78,-30.79 75.25,-20.17l379.06 147.07 61.95 -400.48c3.81,-28.19 25.73,-51.73 55.27,-56.3l401.69 -62.14 -146.08 -376.5c-11.6,-26.63 -4.54,-58.74 19.18,-77.81l316.77 -254.63 -316.77 -254.63c-21.78,-17.54 -30.79,-47.78 -20.17,-75.25l147.07 -379.06 -400.48 -61.95c-28.19,-3.81 -51.73,-25.73 -56.3,-55.27l-62.14 -401.69 -376.5 146.08c-26.63,11.6 -58.74,4.54 -77.81,-19.18l-254.63 -316.77 -254.63 316.77c-17.54,21.78 -47.78,30.79 -75.25,20.17l-379.06 -147.07z"/>
   <path fill="#FEFEFE" fill-rule="nonzero" d="M1166.07 2195.25l-202.57 -276.72c-21.56,-29.42 -15.19,-70.75 14.23,-92.32 3.95,-2.9 8.13,-5.29 12.44,-7.19l313.78 -138.42 -37.09 -341.08c-3.85,-36.27 22.43,-68.81 58.7,-72.67 5.2,-0.55 10.32,-0.48 15.29,0.15l339.76 36.95 138.36 -313.81c14.7,-33.42 53.73,-48.58 87.15,-33.88 5.51,2.42 10.52,5.51 14.99,9.13l274.15 200.69 276.72 -202.57c29.42,-21.56 70.75,-15.19 92.32,14.23 2.9,3.95 5.29,8.13 7.19,12.44l138.42 313.78 341.08 -37.09c36.27,-3.85 68.81,22.43 72.67,58.7 0.55,5.2 0.48,10.32 -0.15,15.29l-36.95 339.76 313.81 138.36c33.42,14.7 48.58,53.73 33.88,87.15 -2.42,5.51 -5.51,10.52 -9.13,14.99l-200.69 274.15 202.57 276.72c21.56,29.42 15.19,70.75 -14.23,92.32 -3.95,2.9 -8.13,5.29 -12.44,7.19l-313.78 138.42 37.09 341.08c3.85,36.27 -22.43,68.81 -58.7,72.67 -5.2,0.55 -10.32,0.48 -15.29,-0.15l-339.76 -36.95 -138.36 313.81c-14.7,33.42 -53.73,48.58 -87.15,33.88 -5.51,-2.42 -10.52,-5.51 -14.99,-9.13l-274.15 -200.69 -276.72 202.57c-29.42,21.56 -70.75,15.19 -92.32,-14.23 -2.9,-3.95 -5.29,-8.13 -7.19,-12.44l-138.42 -313.78 -341.08 37.09c-36.27,3.85 -68.81,-22.43 -72.67,-58.7 -0.55,-5.2 -0.48,-10.32 0.15,-15.29l36.95 -339.76 -313.81 -138.36c-33.42,-14.7 -48.58,-53.73 -33.88,-87.15 2.42,-5.51 5.51,-10.52 9.13,-14.99l200.69 -274.15zm-47.43 -288.43l181.83 248.38c17.3,22.69 18.45,54.91 0.73,79.09l-182.56 249.38 282.84 124.71c25.59,11.31 42.16,38.18 39.05,67.5l-33.44 307.53 304.32 -33.09c28.9,-4.53 58.36,10.66 70.7,38.7l124.71 282.84 248.38 -181.83c22.69,-17.3 54.91,-18.45 79.09,-0.73l249.38 182.56 124.71 -282.84c11.31,-25.59 38.18,-42.16 67.5,-39.05l307.53 33.44 -33.09 -304.32c-4.53,-28.9 10.66,-58.36 38.7,-70.7l282.84 -124.71 -181.83 -248.38c-17.3,-22.69 -18.45,-54.91 -0.73,-79.09l182.56 -249.38 -282.84 -124.71c-25.59,-11.31 -42.16,-38.18 -39.05,-67.5l33.44 -307.53 -304.32 33.09c-28.9,4.53 -58.36,-10.66 -70.7,-38.7l-124.71 -282.84 -248.38 181.83c-22.69,17.3 -54.91,18.45 -79.09,0.73l-249.38 -182.56 -124.71 282.84c-11.31,25.59 -38.18,42.16 -67.5,39.05l-307.53 -33.44 33.09 304.32c4.53,28.9 -10.66,58.36 -38.7,70.7l-282.84 124.71z"/>
   <path fill="#FEFEFE" fill-rule="nonzero" d="M1634 1634l37.58 -242.97c5.57,-35.99 39.26,-60.65 75.25,-55.09 4.78,0.74 9.36,1.98 13.7,3.65l229.22 88.9 154.04 -191.63c22.85,-28.41 64.42,-32.93 92.83,-10.08 4.11,3.3 7.72,7 10.82,11l153.31 190.72 229.21 -88.93c33.99,-13.13 72.2,3.77 85.34,37.75 2.08,5.38 3.4,10.87 4.03,16.34l37.17 240.34 242.97 37.58c35.99,5.57 60.65,39.26 55.09,75.25 -0.74,4.78 -1.98,9.36 -3.65,13.7l-88.9 229.22 191.63 154.04c28.41,22.85 32.93,64.42 10.08,92.83 -3.3,4.11 -7,7.72 -11,10.82l-190.72 153.31 88.93 229.21c13.13,33.99 -3.77,72.2 -37.75,85.34 -5.38,2.08 -10.87,3.4 -16.34,4.03l-240.34 37.17 -37.58 242.97c-5.57,35.99 -39.26,60.65 -75.25,55.09 -4.78,-0.74 -9.36,-1.98 -13.7,-3.65l-229.22 -88.9 -154.04 191.63c-22.85,28.41 -64.42,32.93 -92.83,10.08 -4.11,-3.3 -7.72,-7 -10.82,-11l-153.31 -190.72 -229.21 88.93c-33.99,13.13 -72.2,-3.77 -85.34,-37.75 -2.08,-5.38 -3.4,-10.87 -4.03,-16.34l-37.17 -240.34 -242.97 -37.58c-35.99,-5.57 -60.65,-39.26 -55.09,-75.25 0.74,-4.78 1.98,-9.36 3.65,-13.7l88.9 -229.22 -191.63 -154.04c-28.41,-22.85 -32.93,-64.42 -10.08,-92.83 3.3,-4.11 7,-7.72 11,-10.82l190.72 -153.31 -88.93 -229.21c-13.13,-33.99 3.77,-72.2 37.75,-85.34 5.38,-2.08 10.87,-3.4 16.34,-4.03l240.34 -37.17zm155.37 -141.7l-32.23 208.36c-3.81,28.19 -25.73,51.73 -55.27,56.3l-209.57 32.42 75.75 195.24c11.6,26.63 4.54,58.74 -19.18,77.81l-165.24 132.83 165.24 132.83c21.78,17.54 30.79,47.78 20.17,75.25l-76.75 197.8 208.36 32.23c28.19,3.81 51.73,25.73 56.3,55.27l32.42 209.57 195.24 -75.75c26.63,-11.6 58.74,-4.54 77.81,19.18l132.83 165.24 132.83 -165.24c17.54,-21.78 47.78,-30.79 75.25,-20.17l197.8 76.75 32.23 -208.36c3.81,-28.19 25.73,-51.73 55.27,-56.3l209.57 -32.42 -75.75 -195.24c-11.6,-26.63 -4.54,-58.74 19.18,-77.81l165.24 -132.83 -165.24 -132.83c-21.78,-17.54 -30.79,-47.78 -20.17,-75.25l76.75 -197.8 -208.36 -32.23c-28.19,-3.81 -51.73,-25.73 -56.3,-55.27l-32.42 -209.57 -195.24 75.75c-26.63,11.6 -58.74,4.54 -77.81,-19.18l-132.83 -165.24 -132.83 165.24c-17.54,21.78 -47.78,30.79 -75.25,20.17l-197.8 -76.75z"/>
  </g>
 </g>
</svg>
