<?xml version="1.0" encoding="UTF-8"?>
<!DOCTYPE svg PUBLIC "-//W3C//DTD SVG 1.1//EN" "http://www.w3.org/Graphics/SVG/1.1/DTD/svg11.dtd">
<!-- Creator: CorelDRAW 2018 (64-Bit) -->
<svg xmlns="http://www.w3.org/2000/svg" xml:space="preserve" width="61.143mm" height="61.143mm" version="1.1" shape-rendering="geometricPrecision" text-rendering="geometricPrecision" image-rendering="optimizeQuality" fill-rule="evenodd" clip-rule="evenodd"
viewBox="0 0 3548.18 3548.18"
 xmlns:xlink="http://www.w3.org/1999/xlink">
 <g id="Layer_x0020_1">
  <metadata id="CorelCorpID_0Corel-Layer"/>
  <g id="_1847675835216">
   <polygon fill="#FEFEFE" points="1038.19,1429.61 830.34,1521.26 964.46,1704.47 1101.95,1593.95 "/>
   <path fill="#FEFEFE" d="M718.72 1206.67l78.57 202.52 195.48 -86.23 -23.1 -212.38 -214.74 33.22c3.92,25.3 -9.4,51.07 -33.94,61.87l-2.27 1z"/>
   <polygon fill="#FEFEFE" points="1083.19,1083.19 1107.75,1309.07 1282.1,1282.1 1309.07,1107.75 "/>
   <path fill="#FEFEFE" d="M1143.79 754.94l-33.22 214.74 212.39 23.1 86.2 -195.49 -202.49 -78.56 -1 2.27c-9.92,22.43 -33.47,36.96 -59.17,34.23l-2.7 -0.3z"/>
   <polygon fill="#FEFEFE" points="1521.26,830.34 1429.6,1038.21 1593.95,1101.95 1704.48,964.46 "/>
   <path fill="#FEFEFE" d="M1737.88 576.37l-136.15 169.37 172.36 126.18 172.36 -126.18 -136.15 -169.37 -1.11 0.82c-19.89,15.16 -48.14,16.17 -69.33,0.64l-1.99 -1.46z"/>
   <path fill="#FEFEFE" d="M1341.11 413.82l-87.73 198.95 209.8 81.39c11.48,-8.33 25.79,-12.29 40.15,-10.78l141.04 -175.47 -175.38 -128.39 -24.9 30.98c-15.38,19.09 -41.88,26.99 -65.96,17.68l-37.03 -14.37z"/>
   <path fill="#FEFEFE" d="M1903.81 507.92l141.09 175.52c14.07,-1.45 28.4,2.29 40.04,10.75l209.86 -81.43 -87.72 -198.94 -34.78 13.5c-23.34,10.17 -51.49,3.98 -68.21,-16.81l-24.9 -30.98 -175.38 128.39z"/>
   <path fill="#FEFEFE" d="M2139 797.3l86.23 195.48 212.38 -23.1 -33.22 -214.74c-25.3,3.92 -51.07,-9.4 -61.87,-33.94l-1 -2.27 -202.52 78.57z"/>
   <polygon fill="#FEFEFE" points="1843.71,964.46 1954.23,1101.95 2118.58,1038.19 2026.93,830.34 "/>
   <path fill="#FEFEFE" d="M1774.09 0l-232.47 289.19 175.37 128.38 11.99 -14.91c20.03,-24.91 56.47,-28.86 81.38,-8.84 3.6,2.9 6.77,6.14 9.48,9.64l11.35 14.11 175.37 -128.38 -232.47 -289.19z"/>
   <path fill="#FEFEFE" d="M2315.22 371.87l87.74 198.92 17.86 -6.93c29.79,-11.51 63.29,3.3 74.81,33.1 1.82,4.72 2.98,9.53 3.53,14.33l2.56 16.58 216.21 -23.51 -56.73 -366.73 -345.99 134.24z"/>
   <path fill="#FEFEFE" d="M2519.45 742.42l34.41 222.5c12.97,5.77 23.56,16.21 29.42,29.4l222.48 34.41 23.51 -216.21 -38.2 -5.91c-24.72,-3.34 -45.35,-22.55 -49.35,-48.45l-6.07 -39.26 -216.21 23.51z"/>
   <path fill="#FEFEFE" d="M2943.83 830.25l-23.51 216.21 18.89 2.92c31.55,4.88 53.17,34.42 48.29,65.96 -0.65,4.19 -1.74,8.21 -3.2,12.01l-6.92 17.86 198.96 87.73 134.23 -345.96 -366.73 -56.73z"/>
   <path fill="#FEFEFE" d="M2578.51 1110.57l-23.1 212.39 195.49 86.2 78.56 -202.49 -2.27 -1c-22.43,-9.92 -36.96,-33.47 -34.23,-59.17l0.3 -2.7 -214.74 -33.22z"/>
   <polygon fill="#FEFEFE" points="2239.12,1107.75 2266.08,1282.1 2440.43,1309.07 2465,1083.19 "/>
   <path fill="#FEFEFE" d="M886.97 237.63l-56.73 366.73 216.21 23.51 2.92 -18.89c4.88,-31.55 34.42,-53.17 65.96,-48.29 4.19,0.65 8.21,1.74 12.01,3.2l17.86 6.92 87.73 -198.96 -345.96 -134.23z"/>
   <path fill="#FEFEFE" d="M718.91 812.53l23.51 216.21 222.5 -34.41c5.77,-12.97 16.21,-23.56 29.4,-29.42l34.41 -222.48 -216.21 -23.51 -5.91 38.2c-3.34,24.72 -22.55,45.35 -48.45,49.35l-39.26 6.07z"/>
   <path fill="#FEFEFE" d="M237.63 886.97l134.24 345.99 198.92 -87.74 -6.93 -17.86c-11.51,-29.79 3.3,-63.29 33.1,-74.81 4.72,-1.82 9.53,-2.98 14.33,-3.53l16.58 -2.56 -23.51 -216.21 -366.73 56.73z"/>
   <path fill="#FEFEFE" d="M427.32 1375.89c10.17,23.34 3.98,51.49 -16.81,68.21l-30.98 24.9 128.39 175.38 175.52 -141.09c-1.45,-14.07 2.29,-28.4 10.75,-40.04l-81.43 -209.86 -198.94 87.72 13.5 34.78z"/>
   <path fill="#FEFEFE" d="M289.19 1541.63l-289.19 232.47 289.19 232.47 128.38 -175.37 -14.91 -11.99c-24.91,-20.03 -28.86,-56.47 -8.84,-81.38 2.9,-3.6 6.14,-6.77 9.64,-9.48l14.11 -11.35 -128.38 -175.37z"/>
   <path fill="#FEFEFE" d="M745.74 1601.73l-169.37 136.15 0.82 1.11c15.16,19.89 16.17,48.14 0.64,69.33l-1.46 1.99 169.37 136.15 126.18 -172.36 -126.18 -172.36z"/>
   <path fill="#FEFEFE" d="M379.53 2079.18l30.98 24.9c19.09,15.38 26.99,41.88 17.68,65.96l-14.37 37.03 198.95 87.73 81.39 -209.8c-8.33,-11.48 -12.29,-25.79 -10.78,-40.15l-175.47 -141.04 -128.39 175.38z"/>
   <path fill="#FEFEFE" d="M371.86 2315.25l-134.23 345.96 366.73 56.73 23.51 -216.21 -18.89 -2.92c-31.55,-4.88 -53.17,-34.42 -48.29,-65.96 0.65,-4.19 1.74,-8.21 3.2,-12.01l6.92 -17.86 -198.96 -87.73z"/>
   <path fill="#FEFEFE" d="M797.28 2139.03l-78.56 202.49 2.27 1c22.43,9.92 36.96,33.47 34.23,59.17l-0.3 2.7 214.74 33.22 23.1 -212.39 -195.49 -86.2z"/>
   <polygon fill="#FEFEFE" points="964.46,1843.71 830.34,2026.93 1038.21,2118.59 1101.95,1954.23 "/>
   <polygon fill="#FEFEFE" points="1107.75,2239.12 1083.19,2465 1309.07,2440.43 1282.1,2266.08 "/>
   <path fill="#FEFEFE" d="M742.42 2519.45l-23.51 216.21 38.2 5.91c24.72,3.34 45.35,22.55 49.35,48.45l6.07 39.26 216.21 -23.51 -34.41 -222.5c-12.97,-5.77 -23.56,-16.21 -29.42,-29.4l-222.48 -34.41z"/>
   <path fill="#FEFEFE" d="M1110.57 2578.51l33.22 214.74c25.3,-3.92 51.07,9.4 61.87,33.94l1 2.27 202.52 -78.57 -86.23 -195.48 -212.38 23.1z"/>
   <polygon fill="#FEFEFE" points="1429.61,2509.99 1521.26,2717.85 1704.47,2583.72 1593.95,2446.23 "/>
   <path fill="#FEFEFE" d="M830.25 2943.83l56.73 366.73 345.99 -134.24 -87.74 -198.92 -17.86 6.93c-29.79,11.51 -63.29,-3.3 -74.81,-33.1 -1.82,-4.72 -2.98,-9.53 -3.53,-14.33l-2.56 -16.58 -216.21 23.51z"/>
   <path fill="#FEFEFE" d="M1253.39 2935.42l87.72 198.94 34.78 -13.5c23.34,-10.17 51.49,-3.98 68.21,16.81l24.9 30.98 175.38 -128.39 -141.09 -175.52c-14.07,1.45 -28.4,-2.29 -40.04,-10.75l-209.86 81.43z"/>
   <path fill="#FEFEFE" d="M1601.73 2802.45l136.15 169.37 1.11 -0.82c19.89,-15.16 48.14,-16.17 69.33,-0.64l1.99 1.46 136.15 -169.37 -172.36 -126.18 -172.36 126.18z"/>
   <polygon fill="#FEFEFE" points="1954.23,2446.23 1843.71,2583.72 2026.93,2717.85 2118.59,2509.97 "/>
   <path fill="#FEFEFE" d="M2225.23 2555.41l-86.2 195.49 202.49 78.56 1 -2.27c9.92,-22.43 33.47,-36.96 59.17,-34.23l2.7 0.3 33.22 -214.74 -212.39 -23.1z"/>
   <path fill="#FEFEFE" d="M2044.85 2864.8l-141.04 175.47 175.38 128.39 24.9 -30.98c15.38,-19.09 41.88,-26.99 65.96,-17.68l37.03 14.37 87.73 -198.95 -209.8 -81.39c-11.48,8.33 -25.79,12.29 -40.15,10.78z"/>
   <path fill="#FEFEFE" d="M1541.63 3258.99l232.47 289.19 232.47 -289.19 -175.37 -128.38 -11.99 14.91c-20.03,24.91 -56.47,28.86 -81.38,8.84 -3.6,-2.9 -6.77,-6.14 -9.48,-9.64l-11.35 -14.11 -175.37 128.38z"/>
   <path fill="#FEFEFE" d="M2402.98 2977.37l-87.73 198.96 345.96 134.23 56.73 -366.73 -216.21 -23.51 -2.92 18.89c-4.88,31.55 -34.42,53.17 -65.96,48.29 -4.19,-0.65 -8.21,-1.74 -12.01,-3.2l-17.86 -6.92z"/>
   <path fill="#FEFEFE" d="M2553.86 2583.28l-34.41 222.48 216.21 23.51 5.91 -38.2c3.34,-24.72 22.55,-45.35 48.45,-49.35l39.26 -6.07 -23.51 -216.21 -222.5 34.41c-5.77,12.97 -16.21,23.56 -29.4,29.42z"/>
   <path fill="#FEFEFE" d="M2920.32 2501.73l23.51 216.21 366.73 -56.73 -134.24 -345.99 -198.92 87.74 6.93 17.86c11.51,29.79 -3.3,63.29 -33.1,74.81 -4.72,1.82 -9.53,2.98 -14.33,3.53l-16.58 2.56z"/>
   <path fill="#FEFEFE" d="M2854 2084.93l81.43 209.86 198.94 -87.72 -13.5 -34.78c-10.17,-23.34 -3.98,-51.49 16.81,-68.21l30.98 -24.9 -128.39 -175.38 -175.52 141.09c1.45,14.07 -2.29,28.4 -10.75,40.04z"/>
   <path fill="#FEFEFE" d="M2555.41 2225.23l23.1 212.38 214.74 -33.22c-3.92,-25.3 9.4,-51.07 33.94,-61.87l2.27 -1 -78.57 -202.52 -195.48 86.23z"/>
   <polygon fill="#FEFEFE" points="2266.08,2266.08 2239.12,2440.43 2465,2465 2440.43,2239.12 "/>
   <polygon fill="#FEFEFE" points="2446.23,1954.23 2509.99,2118.58 2717.85,2026.93 2583.72,1843.71 "/>
   <path fill="#FEFEFE" d="M2802.45 1601.73l-126.18 172.36 126.18 172.36 169.37 -136.15 -0.82 -1.11c-15.16,-19.89 -16.17,-48.14 -0.64,-69.33l1.46 -1.99 -169.37 -136.15z"/>
   <polygon fill="#FEFEFE" points="2509.97,1429.6 2446.23,1593.95 2583.72,1704.48 2717.85,1521.26 "/>
   <path fill="#FEFEFE" d="M2935.41 1253.38l-81.39 209.8c8.33,11.48 12.29,25.79 10.78,40.15l175.47 141.04 128.39 -175.38 -30.98 -24.9c-19.09,-15.38 -26.99,-41.88 -17.68,-65.96l14.37 -37.03 -198.95 -87.73z"/>
   <path fill="#FEFEFE" d="M3145.53 1728.98c24.91,20.03 28.86,56.47 8.84,81.38 -2.9,3.6 -6.14,6.77 -9.64,9.48l-14.11 11.35 128.38 175.37 289.19 -232.47 -289.19 -232.47 -128.38 175.37 14.91 11.99z"/>
  </g>
 </g>
</svg>
