<?xml version="1.0" encoding="UTF-8"?>
<!DOCTYPE svg PUBLIC "-//W3C//DTD SVG 1.1//EN" "http://www.w3.org/Graphics/SVG/1.1/DTD/svg11.dtd">
<!-- Creator: CorelDRAW 2018 (64-Bit) -->
<svg xmlns="http://www.w3.org/2000/svg" xml:space="preserve" width="320mm" height="180mm" version="1.1" shape-rendering="geometricPrecision" text-rendering="geometricPrecision" image-rendering="optimizeQuality" fill-rule="evenodd" clip-rule="evenodd"
viewBox="0 0 32000 18000"
 xmlns:xlink="http://www.w3.org/1999/xlink">
 <defs>
    <linearGradient id="id0" gradientUnits="userSpaceOnUse" x1="12940.78" y1="8098.58" x2="21001.39" y2="7869.1">
     <stop offset="0" stop-opacity="1" stop-color="#2A368A"/>
     <stop offset="1" stop-opacity="1" stop-color="#11946C"/>
    </linearGradient>
   <linearGradient id="id1" gradientUnits="userSpaceOnUse" x1="11088.2" y1="13821.95" x2="25068.27" y2="10800.74">
    <stop offset="0" stop-opacity="1" stop-color="#2A368A"/>
    <stop offset="1" stop-opacity="1" stop-color="#11946C"/>
   </linearGradient>
   <linearGradient id="id2" gradientUnits="userSpaceOnUse" x1="11088.2" y1="13821.95" x2="25068.27" y2="10800.74">
    <stop offset="0" stop-opacity="1" stop-color="#2A368A"/>
    <stop offset="1" stop-opacity="1" stop-color="#11946C"/>
   </linearGradient>
   <linearGradient id="id3" gradientUnits="userSpaceOnUse" x1="11088.2" y1="13821.95" x2="25068.27" y2="10800.74">
    <stop offset="0" stop-opacity="1" stop-color="#2A368A"/>
    <stop offset="1" stop-opacity="1" stop-color="#11946C"/>
   </linearGradient>
   <linearGradient id="id4" gradientUnits="userSpaceOnUse" x1="11088.2" y1="13821.95" x2="25068.27" y2="10800.74">
    <stop offset="0" stop-opacity="1" stop-color="#2A368A"/>
    <stop offset="1" stop-opacity="1" stop-color="#11946C"/>
   </linearGradient>
   <linearGradient id="id5" gradientUnits="userSpaceOnUse" x1="11088.2" y1="13821.95" x2="25068.27" y2="10800.74">
    <stop offset="0" stop-opacity="1" stop-color="#2A368A"/>
    <stop offset="1" stop-opacity="1" stop-color="#11946C"/>
   </linearGradient>
   <linearGradient id="id6" gradientUnits="userSpaceOnUse" x1="11088.2" y1="13821.95" x2="25068.27" y2="10800.74">
    <stop offset="0" stop-opacity="1" stop-color="#2A368A"/>
    <stop offset="1" stop-opacity="1" stop-color="#11946C"/>
   </linearGradient>
   <linearGradient id="id7" gradientUnits="userSpaceOnUse" x1="11088.2" y1="13821.95" x2="25068.27" y2="10800.74">
    <stop offset="0" stop-opacity="1" stop-color="#2A368A"/>
    <stop offset="1" stop-opacity="1" stop-color="#11946C"/>
   </linearGradient>
 </defs>
 <g id="Layer_x0020_1">
  <metadata id="CorelCorpID_0Corel-Layer"/>
  <g id="_1847675832816">
   <polygon fill="url(#id0)" fill-rule="nonzero" stroke="#332C2B" stroke-width="20" stroke-miterlimit="22.9256" points="14217.17,4723.21 15026.28,5037.13 15111.41,4844.06 15281.63,4968.68 15825.36,4292.28 16369.09,4968.68 16539.31,4844.06 16624.44,5037.13 17433.55,4723.21 17566.21,5580.84 17775.96,5558.03 17753.15,5767.78 18610.78,5900.44 18296.86,6709.55 18489.93,6794.68 18365.31,6964.9 19041.71,7508.63 18365.31,8052.36 18489.93,8222.58 18296.86,8307.71 18610.78,9116.82 17753.15,9249.48 17775.96,9459.23 17566.21,9436.42 17433.55,10294.05 16624.44,9980.13 16539.31,10173.2 16369.09,10048.58 15825.36,10724.98 15281.63,10048.58 15111.41,10173.2 15026.28,9980.13 14217.17,10294.05 14084.51,9436.42 13874.76,9459.23 13897.57,9249.48 13039.94,9116.82 13353.86,8307.71 13160.79,8222.58 13285.41,8052.36 12609.01,7508.63 13285.41,6964.9 13160.79,6794.68 13353.86,6709.55 13039.94,5900.44 13897.57,5767.78 13874.76,5558.03 14084.51,5580.84 "/>
   <g>
    <path fill="#FEFEFE" fill-rule="nonzero" d="M13972.18 5655.45l146.55 -947.47c8.41,-54.36 59.31,-91.62 113.67,-83.21 7.22,1.12 14.14,2.99 20.69,5.52l893.85 346.75 600.69 -747.26c34.51,-42.92 97.31,-49.74 140.23,-15.23 6.21,4.99 11.66,10.58 16.34,16.61l599.58 745.88 893.83 -346.8c51.34,-19.84 109.07,5.69 128.91,57.03 3.14,8.13 5.14,16.42 6.09,24.69l145.93 943.49 947.47 146.55c54.36,8.41 91.62,59.31 83.21,113.67 -1.12,7.22 -2.99,14.14 -5.52,20.69l-346.75 893.85 747.26 600.69c42.92,34.51 49.74,97.31 15.23,140.23 -4.99,6.21 -10.58,11.66 -16.61,16.34l-745.88 599.58 346.8 893.83c19.84,51.34 -5.69,109.07 -57.03,128.91 -8.13,3.14 -16.42,5.14 -24.69,6.09l-943.49 145.93 -146.55 947.47c-8.41,54.36 -59.31,91.62 -113.67,83.21 -7.22,-1.12 -14.14,-2.99 -20.69,-5.52l-893.85 -346.75 -600.69 747.26c-34.51,42.92 -97.31,49.74 -140.23,15.23 -6.21,-4.99 -11.66,-10.58 -16.34,-16.61l-599.58 -745.88 -893.83 346.8c-51.34,19.84 -109.07,-5.69 -128.91,-57.03 -3.14,-8.13 -5.14,-16.42 -6.09,-24.69l-145.93 -943.49 -947.47 -146.55c-54.36,-8.41 -91.62,-59.31 -83.21,-113.67 1.12,-7.22 2.99,-14.14 5.52,-20.69l346.75 -893.85 -747.26 -600.69c-42.92,-34.51 -49.74,-97.31 -15.23,-140.23 4.99,-6.21 10.58,-11.66 16.61,-16.34l745.88 -599.58 -346.8 -893.83c-19.84,-51.34 5.69,-109.07 57.03,-128.91 8.13,-3.14 16.42,-5.14 24.69,-6.09l943.49 -145.93zm324.48 -794.49l-138.47 895.18c-5.76,42.59 -38.86,78.14 -83.49,85.04l-897.01 138.75 326.89 842.51c17.52,40.22 6.86,88.73 -28.97,117.54l-707.4 568.65 707.4 568.65c32.9,26.5 46.51,72.17 30.47,113.67l-328.39 846.38 895.18 138.47c42.59,5.76 78.14,38.86 85.04,83.49l138.75 897.01 842.51 -326.89c40.22,-17.52 88.73,-6.86 117.54,28.97l568.65 707.4 568.65 -707.4c26.5,-32.9 72.17,-46.51 113.67,-30.47l846.38 328.39 138.47 -895.18c5.76,-42.59 38.86,-78.14 83.49,-85.04l897.01 -138.75 -326.89 -842.51c-17.52,-40.22 -6.86,-88.73 28.97,-117.54l707.4 -568.65 -707.4 -568.65c-32.9,-26.5 -46.51,-72.17 -30.47,-113.67l328.39 -846.38 -895.18 -138.47c-42.59,-5.76 -78.14,-38.86 -85.04,-83.49l-138.75 -897.01 -842.51 326.89c-40.22,17.52 -88.73,6.86 -117.54,-28.97l-568.65 -707.4 -568.65 707.4c-26.5,32.9 -72.17,46.51 -113.67,30.47l-846.38 -328.39z"/>
    <path fill="#FEFEFE" fill-rule="nonzero" d="M13559.81 7508.63l-479.49 -654.97c-32.57,-44.44 -22.95,-106.88 21.49,-139.45 5.97,-4.38 12.28,-7.99 18.79,-10.86l742.72 -327.58 -87.78 -807.19c-5.82,-54.79 33.88,-103.95 88.67,-109.77 7.85,-0.83 15.59,-0.73 23.1,0.22l805.19 87.56 327.5 -742.76c22.21,-50.48 81.16,-73.39 131.64,-51.18 8.33,3.66 15.9,8.33 22.64,13.79l651.08 476.64 654.97 -479.49c44.44,-32.57 106.88,-22.95 139.45,21.49 4.38,5.97 7.99,12.28 10.86,18.79l327.58 742.72 807.19 -87.78c54.79,-5.82 103.95,33.88 109.77,88.67 0.83,7.85 0.73,15.59 -0.22,23.1l-87.56 805.19 742.76 327.5c50.48,22.21 73.39,81.16 51.18,131.64 -3.66,8.33 -8.33,15.9 -13.79,22.64l-476.64 651.08 479.49 654.97c32.57,44.44 22.95,106.88 -21.49,139.45 -5.97,4.38 -12.28,7.99 -18.79,10.86l-742.72 327.58 87.78 807.19c5.82,54.79 -33.88,103.95 -88.67,109.77 -7.85,0.83 -15.59,0.73 -23.1,-0.22l-805.19 -87.56 -327.5 742.76c-22.21,50.48 -81.16,73.39 -131.64,51.18 -8.33,-3.66 -15.9,-8.33 -22.64,-13.79l-651.08 -476.64 -654.97 479.49c-44.44,32.57 -106.88,22.95 -139.45,-21.49 -4.38,-5.97 -7.99,-12.28 -10.86,-18.79l-327.58 -742.72 -807.19 87.78c-54.79,5.82 -103.95,-33.88 -109.77,-88.67 -0.83,-7.85 -0.73,-15.59 0.22,-23.1l87.56 -805.19 -742.76 -327.5c-50.48,-22.21 -73.39,-81.16 -51.18,-131.64 3.66,-8.33 8.33,-15.9 13.79,-22.64l476.64 -651.08zm-245.14 -672.65l448.16 612.16c26.13,34.27 27.87,82.95 1.1,119.47l-449.26 613.67 695.98 306.88c38.66,17.09 63.69,57.68 58.99,101.96l-82.27 756.5 751.66 -81.74c43.66,-6.84 88.16,16.1 106.8,58.46l306.88 695.98 612.16 -448.16c34.27,-26.13 82.95,-27.87 119.47,-1.1l613.67 449.26 306.88 -695.98c17.09,-38.66 57.68,-63.69 101.96,-58.99l756.5 82.27 -81.74 -751.66c-6.84,-43.66 16.1,-88.16 58.46,-106.8l695.98 -306.88 -448.16 -612.16c-26.13,-34.27 -27.87,-82.95 -1.1,-119.47l449.26 -613.67 -695.98 -306.88c-38.66,-17.09 -63.69,-57.68 -58.99,-101.96l82.27 -756.5 -751.66 81.74c-43.66,6.84 -88.16,-16.1 -106.8,-58.46l-306.88 -695.98 -612.16 448.16c-34.27,26.13 -82.95,27.87 -119.47,1.1l-613.67 -449.26 -306.88 695.98c-17.09,38.66 -57.68,63.69 -101.96,58.99l-756.5 -82.27 81.74 751.66c6.84,43.66 -16.1,88.16 -58.46,106.8l-695.98 306.88z"/>
    <path fill="#FEFEFE" fill-rule="nonzero" d="M14474.86 6158.13l101.66 -657.25c8.41,-54.36 59.31,-91.62 113.67,-83.21 7.22,1.12 14.14,2.99 20.69,5.52l620.07 240.53 416.68 -518.37c34.51,-42.92 97.31,-49.74 140.23,-15.23 6.21,4.99 11.66,10.58 16.34,16.61l415.57 516.99 620.05 -240.58c51.34,-19.84 109.07,5.69 128.91,57.03 3.14,8.13 5.14,16.42 6.09,24.69l101.04 653.27 657.25 101.66c54.36,8.41 91.62,59.31 83.21,113.67 -1.12,7.22 -2.99,14.14 -5.52,20.69l-240.53 620.07 518.37 416.68c42.92,34.51 49.74,97.31 15.23,140.23 -4.99,6.21 -10.58,11.66 -16.61,16.34l-516.99 415.57 240.58 620.05c19.84,51.34 -5.69,109.07 -57.03,128.91 -8.13,3.14 -16.42,5.14 -24.69,6.09l-653.27 101.04 -101.66 657.25c-8.41,54.36 -59.31,91.62 -113.67,83.21 -7.22,-1.12 -14.14,-2.99 -20.69,-5.52l-620.07 -240.53 -416.68 518.37c-34.51,42.92 -97.31,49.74 -140.23,15.23 -6.21,-4.99 -11.66,-10.58 -16.34,-16.61l-415.57 -516.99 -620.05 240.58c-51.34,19.84 -109.07,-5.69 -128.91,-57.03 -3.14,-8.13 -5.14,-16.42 -6.09,-24.69l-101.04 -653.27 -657.25 -101.66c-54.36,-8.41 -91.62,-59.31 -83.21,-113.67 1.12,-7.22 2.99,-14.14 5.52,-20.69l240.53 -620.07 -518.37 -416.68c-42.92,-34.51 -49.74,-97.31 -15.23,-140.23 4.99,-6.21 10.58,-11.66 16.61,-16.34l516.99 -415.57 -240.58 -620.05c-19.84,-51.34 5.69,-109.07 57.03,-128.91 8.13,-3.14 16.42,-5.14 24.69,-6.09l653.27 -101.04zm279.59 -504.26l-93.58 604.95c-5.76,42.58 -38.86,78.13 -83.49,85.04l-606.78 93.86 220.66 568.73c17.52,40.22 6.86,88.73 -28.97,117.54l-478.51 384.64 478.51 384.64c32.9,26.5 46.51,72.17 30.47,113.67l-222.16 572.6 604.95 93.58c42.58,5.76 78.13,38.86 85.04,83.49l93.86 606.78 568.73 -220.66c40.22,-17.52 88.73,-6.86 117.54,28.97l384.64 478.51 384.64 -478.51c26.5,-32.9 72.17,-46.51 113.67,-30.47l572.6 222.16 93.58 -604.95c5.76,-42.58 38.86,-78.14 83.49,-85.04l606.78 -93.86 -220.66 -568.73c-17.52,-40.22 -6.86,-88.73 28.97,-117.54l478.51 -384.64 -478.51 -384.64c-32.9,-26.5 -46.51,-72.17 -30.47,-113.67l222.16 -572.6 -604.95 -93.58c-42.58,-5.76 -78.14,-38.86 -85.04,-83.49l-93.86 -606.78 -568.73 220.66c-40.22,17.52 -88.73,6.86 -117.54,-28.97l-384.64 -478.51 -384.64 478.51c-26.5,32.9 -72.17,46.51 -113.67,30.47l-572.6 -222.16z"/>
    <path fill="#FEFEFE" fill-rule="nonzero" d="M14270.71 7508.63l-306 -418.01c-32.57,-44.44 -22.95,-106.88 21.49,-139.45 5.97,-4.38 12.28,-7.99 18.79,-10.86l473.99 -209.09 -56.03 -515.23c-5.82,-54.79 33.88,-103.95 88.67,-109.77 7.85,-0.83 15.59,-0.73 23.1,0.22l513.23 55.81 209.01 -474.03c22.21,-50.48 81.16,-73.39 131.64,-51.18 8.32,3.66 15.89,8.33 22.64,13.79l414.12 303.15 418.01 -306c44.44,-32.57 106.88,-22.95 139.45,21.49 4.38,5.97 7.99,12.28 10.86,18.79l209.09 473.99 515.23 -56.03c54.79,-5.82 103.95,33.88 109.77,88.67 0.83,7.85 0.73,15.59 -0.22,23.1l-55.81 513.23 474.03 209.01c50.48,22.21 73.39,81.16 51.18,131.64 -3.66,8.32 -8.33,15.89 -13.79,22.64l-303.15 414.12 306 418.01c32.57,44.44 22.95,106.88 -21.49,139.45 -5.97,4.38 -12.28,7.99 -18.79,10.86l-473.99 209.09 56.03 515.23c5.82,54.79 -33.88,103.95 -88.67,109.77 -7.85,0.83 -15.59,0.73 -23.1,-0.22l-513.23 -55.81 -209.01 474.03c-22.21,50.48 -81.16,73.39 -131.64,51.18 -8.32,-3.66 -15.89,-8.33 -22.64,-13.79l-414.12 -303.15 -418.01 306c-44.44,32.57 -106.88,22.95 -139.45,-21.49 -4.38,-5.97 -7.99,-12.28 -10.86,-18.79l-209.09 -473.99 -515.23 56.03c-54.79,5.82 -103.95,-33.88 -109.77,-88.67 -0.83,-7.85 -0.73,-15.59 0.22,-23.1l55.81 -513.23 -474.03 -209.01c-50.48,-22.21 -73.39,-81.16 -51.18,-131.64 3.66,-8.32 8.33,-15.89 13.79,-22.64l303.15 -414.12zm-71.65 -435.69l274.67 375.2c26.13,34.27 27.87,82.95 1.1,119.47l-275.77 376.71 427.25 188.39c38.66,17.09 63.69,57.68 58.99,101.96l-50.52 464.54 459.7 -49.99c43.66,-6.84 88.16,16.1 106.8,58.46l188.39 427.25 375.2 -274.67c34.27,-26.13 82.95,-27.87 119.47,-1.1l376.71 275.77 188.39 -427.25c17.09,-38.66 57.68,-63.69 101.96,-58.99l464.54 50.52 -49.99 -459.7c-6.84,-43.66 16.1,-88.16 58.46,-106.8l427.25 -188.39 -274.67 -375.2c-26.13,-34.27 -27.87,-82.95 -1.1,-119.47l275.77 -376.71 -427.25 -188.39c-38.66,-17.09 -63.69,-57.68 -58.99,-101.96l50.52 -464.54 -459.7 49.99c-43.66,6.84 -88.16,-16.1 -106.8,-58.46l-188.39 -427.25 -375.2 274.67c-34.27,26.13 -82.95,27.87 -119.47,1.1l-376.71 -275.77 -188.39 427.25c-17.09,38.66 -57.68,63.69 -101.96,58.99l-464.54 -50.52 49.99 459.7c6.84,43.66 -16.1,88.16 -58.46,106.8l-427.25 188.39z"/>
    <path fill="#FEFEFE" fill-rule="nonzero" d="M14977.55 6660.82l56.77 -367.03c8.41,-54.36 59.31,-91.62 113.67,-83.21 7.22,1.12 14.14,2.99 20.69,5.52l346.26 134.29 232.69 -289.47c34.51,-42.92 97.31,-49.74 140.23,-15.23 6.21,4.99 11.66,10.58 16.34,16.61l231.58 288.09 346.24 -134.34c51.34,-19.84 109.07,5.69 128.91,57.03 3.14,8.13 5.14,16.42 6.09,24.69l56.15 363.05 367.03 56.77c54.36,8.41 91.62,59.31 83.21,113.67 -1.12,7.22 -2.99,14.14 -5.52,20.69l-134.29 346.26 289.47 232.69c42.92,34.51 49.74,97.31 15.23,140.23 -4.99,6.21 -10.58,11.66 -16.61,16.34l-288.09 231.58 134.34 346.24c19.84,51.34 -5.69,109.07 -57.03,128.91 -8.13,3.14 -16.42,5.14 -24.69,6.09l-363.05 56.15 -56.77 367.03c-8.41,54.36 -59.31,91.62 -113.67,83.21 -7.22,-1.12 -14.14,-2.99 -20.69,-5.52l-346.26 -134.29 -232.69 289.47c-34.51,42.92 -97.31,49.74 -140.23,15.23 -6.21,-4.99 -11.66,-10.58 -16.34,-16.61l-231.58 -288.09 -346.24 134.34c-51.34,19.84 -109.07,-5.69 -128.91,-57.03 -3.14,-8.13 -5.14,-16.42 -6.09,-24.69l-56.15 -363.05 -367.03 -56.77c-54.36,-8.41 -91.62,-59.31 -83.21,-113.67 1.12,-7.22 2.99,-14.14 5.52,-20.69l134.29 -346.26 -289.47 -232.69c-42.92,-34.51 -49.74,-97.31 -15.23,-140.23 4.99,-6.21 10.58,-11.66 16.61,-16.34l288.09 -231.58 -134.34 -346.24c-19.84,-51.34 5.69,-109.07 57.03,-128.91 8.13,-3.14 16.42,-5.14 24.69,-6.09l363.05 -56.15zm234.7 -214.05l-48.69 314.74c-5.76,42.59 -38.86,78.14 -83.49,85.04l-316.57 48.97 114.43 294.92c17.52,40.22 6.86,88.73 -28.97,117.54l-249.61 200.65 249.61 200.65c32.9,26.5 46.51,72.17 30.47,113.67l-115.93 298.79 314.74 48.69c42.59,5.76 78.14,38.86 85.04,83.49l48.97 316.57 294.92 -114.43c40.22,-17.52 88.73,-6.86 117.54,28.97l200.65 249.61 200.65 -249.61c26.5,-32.9 72.17,-46.51 113.67,-30.47l298.79 115.93 48.69 -314.74c5.76,-42.59 38.86,-78.14 83.49,-85.04l316.57 -48.97 -114.43 -294.92c-17.52,-40.22 -6.86,-88.73 28.97,-117.54l249.61 -200.65 -249.61 -200.65c-32.9,-26.5 -46.51,-72.17 -30.47,-113.67l115.93 -298.79 -314.74 -48.69c-42.59,-5.76 -78.14,-38.86 -85.04,-83.49l-48.97 -316.57 -294.92 114.43c-40.22,17.52 -88.73,6.86 -117.54,-28.97l-200.65 -249.61 -200.65 249.61c-26.5,32.9 -72.17,46.51 -113.67,30.47l-298.79 -115.93z"/>
   </g>
   <g>
    <polygon fill="#FFF000" points="14634.78,6318.05 14677.11,6707.29 14977.55,6660.82 15024.02,6360.38 "/>
    <polygon fill="#FFF000" points="15389.67,5882.33 15231.72,6240.55 15514.94,6350.39 15705.4,6113.46 "/>
    <polygon fill="#FFF000" points="16261.05,5882.33 15945.33,6113.46 16135.78,6350.39 16418.98,6240.51 "/>
    <polygon fill="#FFF000" points="17015.94,6318.05 16626.7,6360.38 16673.17,6660.82 16973.61,6707.29 "/>
    <polygon fill="#FFF000" points="17451.66,7072.94 17093.44,6914.99 16983.6,7198.21 17220.53,7388.67 "/>
    <polygon fill="#FFF000" points="17451.66,7944.32 17220.53,7628.6 16983.6,7819.05 17093.48,8102.25 "/>
    <polygon fill="#FFF000" points="17015.94,8699.21 16973.61,8309.97 16673.17,8356.44 16626.7,8656.88 "/>
    <polygon fill="#FFF000" points="16419,8776.71 16135.78,8666.87 15945.32,8903.8 16261.05,9134.93 "/>
    <polygon fill="#FFF000" points="15705.39,8903.8 15514.94,8666.87 15231.74,8776.75 15389.67,9134.93 "/>
    <polygon fill="#FFF000" points="15024.02,8656.88 14977.55,8356.44 14677.11,8309.97 14634.78,8699.21 "/>
    <polygon fill="#FFF000" points="14557.28,8102.27 14667.12,7819.05 14430.19,7628.59 14199.06,7944.32 "/>
    <polygon fill="#FFF000" points="14430.19,7388.66 14667.12,7198.21 14557.24,6915.01 14199.06,7072.94 "/>
   </g>
   <g>
    <path fill="#FDD100" d="M13945.93 7041.97c-2.5,-24.24 3.94,-48.94 18.52,-68.99l-140.32 -361.64 -342.81 151.16 23.26 59.94c17.52,40.22 6.86,88.73 -28.97,117.54l-53.38 42.91 221.24 302.21 302.46 -243.13z"/>
    <path fill="#FDD100" d="M13945.83 7975.21l-302.37 -243.05 -221.24 302.21 53.39 42.91c32.9,26.5 46.51,72.17 30.47,113.67l-24.76 63.81 342.84 151.17 140.25 -361.54c-14.35,-19.78 -21.18,-44.45 -18.58,-69.18z"/>
    <path fill="#FDD100" d="M14430.96 8852.34l-383.39 -59.3 -40.52 372.58 65.82 10.18c42.59,5.76 78.14,38.86 85.04,83.49l10.46 67.65 372.58 -40.52 -59.3 -383.41c-22.35,-9.95 -40.6,-27.93 -50.69,-50.67z"/>
    <path fill="#FDD100" d="M15289.71 9369.54l-361.64 140.32 151.16 342.81 59.94 -23.26c40.22,-17.52 88.73,-6.86 117.54,28.97l42.91 53.38 302.21 -221.24 -243.13 -302.46c-24.24,2.5 -48.94,-3.94 -68.99,-18.52z"/>
    <path fill="#FDD100" d="M16291.94 9388.16l-243.05 302.37 302.21 221.24 42.91 -53.39c26.5,-32.9 72.17,-46.51 113.67,-30.47l63.81 24.76 151.17 -342.84 -361.54 -140.25c-19.78,14.35 -44.45,21.18 -69.18,18.58z"/>
    <path fill="#FDD100" d="M17169.07 8903.03l-59.3 383.39 372.58 40.52 10.18 -65.82c5.76,-42.59 38.86,-78.14 83.49,-85.04l67.65 -10.46 -40.52 -372.58 -383.41 59.3c-9.95,22.35 -27.93,40.6 -50.67,50.69z"/>
    <path fill="#FDD100" d="M17686.27 8044.28l140.32 361.64 342.81 -151.16 -23.26 -59.94c-17.52,-40.22 -6.86,-88.73 28.97,-117.54l53.38 -42.91 -221.24 -302.21 -302.46 243.13c2.5,24.24 -3.94,48.94 -18.52,68.99z"/>
    <path fill="#FDD100" d="M17704.89 7042.05l302.37 243.05 221.24 -302.21 -53.39 -42.91c-32.9,-26.5 -46.51,-72.17 -30.47,-113.67l24.76 -63.81 -342.84 -151.17 -140.25 361.54c14.35,19.78 21.18,44.45 18.58,69.18z"/>
    <path fill="#FDD100" d="M17219.76 6164.92l383.39 59.3 40.52 -372.58 -65.82 -10.18c-42.59,-5.76 -78.14,-38.86 -85.04,-83.49l-10.46 -67.65 -372.58 40.52 59.3 383.41c22.35,9.95 40.6,27.93 50.69,50.67z"/>
    <path fill="#FDD100" d="M16361.01 5647.72l361.64 -140.32 -151.16 -342.81 -59.94 23.26c-40.22,17.52 -88.73,6.86 -117.54,-28.97l-42.91 -53.38 -302.21 221.24 243.13 302.46c24.24,-2.5 48.94,3.94 68.99,18.52z"/>
    <path fill="#FDD100" d="M15358.78 5629.1l243.05 -302.37 -302.21 -221.24 -42.91 53.39c-26.5,32.9 -72.17,46.51 -113.67,30.47l-63.81 -24.76 -151.17 342.84 361.54 140.25c19.78,-14.35 44.45,-21.18 69.18,-18.58z"/>
    <path fill="#FDD100" d="M14481.65 6114.23l59.3 -383.39 -372.58 -40.52 -10.18 65.82c-5.76,42.59 -38.86,78.14 -83.49,85.04l-67.65 10.46 40.52 372.58 383.41 -59.3c9.95,-22.35 27.93,-40.6 50.67,-50.69z"/>
   </g>
  </g>
  <path fill="url(#id1)" fill-rule="nonzero" d="M10616.79 12315.73c-300.75,-111.26 -450.93,-265.76 -450.93,-464.3 0,-121.87 45.99,-222.91 137.6,-302.71 91.99,-79.81 218.19,-119.52 379.37,-119.52 143.1,0 281.49,29.49 414.76,88.85l-49.53 217.01c-113.23,-71.55 -228.81,-107.32 -345.57,-107.32 -84.92,0 -149.39,18.47 -193.03,55.82 -44.03,37.35 -66.05,86.49 -66.05,147.04 0,85.7 88.46,162.75 265.76,231.55 304.29,108.51 456.04,268.52 456.04,480.42 0,122.26 -47.57,223.3 -143.1,303.5 -95.14,80.2 -223.7,120.3 -384.49,120.3 -141.92,0 -293.28,-28.7 -454.07,-85.71l0 -242.56c171.01,86.49 319.62,129.73 445.42,129.73 78.24,0 140.75,-19.26 187.92,-57.39 47.18,-37.75 70.77,-86.89 70.77,-146.64 0,-99.86 -90.03,-182.42 -270.87,-248.07z"/>
  <path id="1" fill="url(#id2)" fill-rule="nonzero" d="M12221.96 11573.88l0 1233.27c0,18.47 1.57,37.34 4.32,57.79 3.15,20.05 15.73,49.93 38.53,89.24l-320.4 0 0 -1515.15 138.38 0c53.86,0 90.81,12.58 110.08,37.35 19.26,24.77 29.09,57.4 29.09,97.5z"/>
  <path id="2" fill="url(#id3)" fill-rule="nonzero" d="M13332.18 11872.27l0 934.88c0,18.47 1.57,37.34 4.71,57.79 2.76,20.05 15.73,49.93 38.14,89.24l-287.38 0 0 -1515.15 138.38 0c62.12,0 114.01,33.42 155.68,99.86l660.47 985.2 0 -1085.06 105.36 0c54.25,0 90.82,12.58 110.08,37.35 19.66,24.77 29.09,57.4 29.09,97.5l0 1233.27c0,18.47 1.57,37.34 4.33,57.79 3.14,20.05 15.72,49.93 38.52,89.24l-303.89 0 -693.49 -1081.91z"/>
  <path id="3" fill="url(#id4)" fill-rule="nonzero" d="M15821.91 11640.71l0 1166.44c0,18.47 1.57,37.34 4.33,57.79 2.75,20.05 15.72,49.93 38.52,89.24l-320.4 0 0 -1313.47 -463.12 0 0 -201.68 1204.57 0 0 63.69c0,46.78 -14.54,81.38 -44.42,104.18 -29.49,22.8 -67.23,33.81 -113.62,33.81l-305.86 0z"/>
  <path id="4" fill="url(#id5)" fill-rule="nonzero" d="M17031.99 11439.03l925.83 0 0 63.69c0,46.78 -14.54,81.38 -44.42,104.18 -29.49,22.8 -67.23,33.81 -113.23,33.81l-490.63 0 0 454.47 597.96 0 0 63.68c0,46.79 -14.94,81.38 -44.42,104.19 -29.49,22.8 -67.62,33.81 -113.62,33.81l-439.92 0 0 455.64 660.47 0 0 63.3c0,46.78 -14.94,81.77 -44.42,104.18 -29.49,22.8 -67.62,34.2 -113.62,34.2l-779.98 0 0 -1515.15z"/>
  <path id="5" fill="url(#id6)" fill-rule="nonzero" d="M19137.23 12315.73c-300.75,-111.26 -450.93,-265.76 -450.93,-464.3 0,-121.87 45.99,-222.91 137.6,-302.71 91.99,-79.81 218.19,-119.52 379.37,-119.52 143.1,0 281.49,29.49 414.76,88.85l-49.53 217.01c-113.23,-71.55 -228.81,-107.32 -345.57,-107.32 -84.92,0 -149.39,18.47 -193.03,55.82 -44.03,37.35 -66.05,86.49 -66.05,147.04 0,85.7 88.46,162.75 265.76,231.55 304.29,108.51 456.04,268.52 456.04,480.42 0,122.26 -47.57,223.3 -143.1,303.5 -95.14,80.2 -223.7,120.3 -384.49,120.3 -141.92,0 -293.28,-28.7 -454.07,-85.71l0 -242.56c171.01,86.49 319.62,129.73 445.42,129.73 78.24,0 140.75,-19.26 187.92,-57.39 47.18,-37.75 70.77,-86.89 70.77,-146.64 0,-99.86 -90.03,-182.42 -270.87,-248.07z"/>
  <path id="6" fill="url(#id7)" fill-rule="nonzero" d="M21220.85 12305.9l-189.89 -474.13 -183.2 474.13 373.09 0zm-452.11 201.68l-172.19 446.6 -246.89 0 538.59 -1362.61c7.47,-18.87 9.05,-40.49 5.51,-64.08 -3.54,-23.98 -17.3,-53.47 -40.5,-88.46l322.38 0 549.99 1358.29c7.08,17.69 17.3,38.13 30.67,62.11 12.97,23.59 38.92,55.44 77.84,94.75l-354.61 0 -178.48 -446.6 -532.31 0z"/>
  <path fill="#332C2B" fill-rule="nonzero" d="M10745.24 13628.71c-83.2,-30.78 -124.75,-73.53 -124.75,-128.46 0,-33.71 12.73,-61.67 38.07,-83.74 25.45,-22.08 60.36,-33.07 104.96,-33.07 39.59,0 77.87,8.16 114.74,24.58l-13.7 60.04c-31.33,-19.8 -63.3,-29.69 -95.61,-29.69 -23.49,0 -41.33,5.11 -53.4,15.44 -12.18,10.33 -18.27,23.93 -18.27,40.68 0,23.71 24.47,45.03 73.52,64.06 84.19,30.02 126.17,74.29 126.17,132.91 0,33.83 -13.16,61.78 -39.59,83.97 -26.32,22.19 -61.89,33.28 -106.37,33.28 -39.27,0 -81.14,-7.94 -125.63,-23.71l0 -67.11c47.32,23.93 88.43,35.9 123.24,35.9 21.64,0 38.93,-5.33 51.98,-15.88 13.06,-10.45 19.58,-24.04 19.58,-40.57 0,-27.63 -24.9,-50.47 -74.94,-68.63z"/>
  <path id="1" fill="#332C2B" fill-rule="nonzero" d="M10955.59 13428.03c0,-10.55 2.5,-19.03 7.61,-25.66 5.01,-6.53 14.69,-9.79 28.83,-9.79l14.57 0c14.14,0 23.71,3.26 28.82,9.79 5.01,6.63 7.62,15.11 7.62,25.66l0 8.49c0,10.33 -2.61,18.81 -7.62,25.34 -5.11,6.63 -14.68,9.9 -28.82,9.9l-14.57 0c-14.14,0 -23.82,-3.27 -28.83,-9.9 -5.11,-6.53 -7.61,-15.01 -7.61,-25.34l0 -8.49zm82.23 118.12l0 218.51c0,5.11 0.43,10.33 1.19,15.99 0.87,5.55 4.35,13.81 10.66,24.69l-88.64 0 0 -296.6 38.28 0c15.01,0 25.13,3.48 30.46,10.33 5.44,6.96 8.05,15.88 8.05,27.08z"/>
  <path id="2" fill="#332C2B" fill-rule="nonzero" d="M11127.22 13642.85c-12.73,-15.34 -19.04,-32.63 -19.04,-52.1 0,-25.89 10.45,-46.55 31.11,-61.89 20.78,-15.45 48.95,-23.06 84.62,-23.06 26.21,0 53.95,6.09 83.1,18.49l-9.36 64.93c-29.36,-19.03 -52.97,-28.49 -70.8,-28.49 -14.69,0 -25.35,2.39 -31.87,7.28 -6.42,4.79 -9.68,11.64 -9.68,20.34 0,7.29 3.59,14.36 10.77,21.21 7.18,6.86 23.05,15.12 47.53,24.69 24.47,9.68 43.07,21.65 55.68,35.9 12.62,14.24 18.93,31.1 18.93,50.46 0,25.78 -10.22,46.88 -30.78,63.3 -20.56,16.54 -47.75,24.8 -81.79,24.8 -30.35,0 -62,-7.18 -94.95,-21.53l0 -65.26c37.19,21.21 68.84,31.87 94.95,31.87 12.51,0 21.64,-2.4 27.19,-7.18 5.55,-4.79 8.37,-10.55 8.37,-17.51 0,-9.25 -3.59,-17.3 -10.65,-24.04 -7.07,-6.85 -22.95,-15.01 -47.54,-24.8 -24.58,-9.68 -43.17,-22.19 -55.79,-37.41z"/>
  <path id="3" fill="#332C2B" fill-rule="nonzero" d="M11409.35 13510.04l6.09 -85.92 31.54 0c15.01,0 25.13,3.37 30.46,10.33 5.44,6.85 8.05,15.88 8.05,26.98l0 47.31 81.35 0 0 17.62c0,12.94 -3.59,22.08 -10.76,27.41 -7.18,5.22 -17.08,7.83 -29.91,7.83l-40.68 0 0 149.98c0,16.75 2.93,27.96 8.81,33.61 5.87,5.77 14.9,8.6 27.08,8.6 12.29,0 29.04,-4.79 50.03,-14.36l9.46 53.18c-23.49,10.66 -46.33,16.1 -68.63,16.1 -34.15,0 -60.03,-8.37 -77.44,-24.91 -17.4,-16.64 -26.1,-40.56 -26.1,-72l0 -150.2 -44.59 0 0 -45.57 45.24 -5.99z"/>
  <path id="4" fill="#332C2B" fill-rule="nonzero" d="M11706.17 13623.81l115.4 0c-0.65,-15.55 -5.77,-30.02 -15.56,-43.29 -9.68,-13.16 -22.95,-19.79 -39.69,-19.79 -16.86,0 -31.55,8.05 -44.05,24.25 -7.84,10.12 -13.27,23.06 -16.1,38.83zm-1.74 48.84c2.61,22.95 10.44,41.22 23.6,55.03 16.42,17.19 37.31,25.78 62.54,25.78 28.71,0 61.56,-10.55 98.32,-31.54l0 65.47c-34.8,14.03 -70.04,21 -105.93,21 -45.69,0 -83.21,-13.82 -112.58,-41.34 -29.36,-27.51 -44.05,-64.82 -44.05,-111.91 0,-43.4 13.6,-79.08 40.9,-107.14 27.19,-28.17 60.26,-42.2 99.09,-42.2 41,0 73.63,13.6 97.67,40.79 24.14,27.19 36.21,62.21 36.21,105.17 0,5.66 -0.65,12.62 -1.84,20.89l-193.93 0z"/>
  <path id="5" fill="#332C2B" fill-rule="nonzero" d="M12197.57 13543.65c28.61,-25.23 54.93,-37.85 78.96,-37.85 31.76,0 56.24,8.16 73.42,24.58 17.19,16.32 25.89,39.16 25.89,68.2l0 166.08c0,5.11 0.32,10.33 1.19,15.99 0.76,5.55 4.35,13.81 10.55,24.69l-88.64 0 0 -201.22c0,-14.35 -3.15,-25.23 -9.57,-32.52 -6.31,-7.28 -17.95,-10.87 -34.7,-10.87 -11.74,0 -26.32,6.74 -43.72,20.34 0.87,5.43 1.2,11.31 1.2,17.51l0 166.08c0,5.11 0.43,10.33 1.19,15.99 0.87,5.55 4.35,13.81 10.66,24.69l-88.64 0 0 -201.22c0,-14.35 -3.16,-25.23 -9.57,-32.52 -6.31,-7.28 -17.95,-10.87 -34.7,-10.87 -13.16,0 -31.32,9.79 -54.38,29.36l0 174.57c0,5.11 0.43,10.33 1.19,15.99 0.87,5.55 4.35,13.81 10.66,24.69l-88.64 0 0 -296.6 38.28 0c15.01,0 25.13,3.48 30.46,10.33 5.44,6.96 8.05,14.03 8.05,21.32l0 0.87c27.3,-23.71 52.75,-35.46 76.24,-35.46 31.76,0 56.23,8.16 73.42,24.58 4.24,4.03 8.05,8.49 11.2,13.27z"/>
  <path id="6" fill="#332C2B" fill-rule="nonzero" d="M12684.51 13423.47l0 341.19c0,5.11 0.43,10.33 1.19,15.99 0.87,5.55 4.36,13.81 10.66,24.69l-88.64 0 0 -419.18 38.29 0c14.9,0 25.12,3.48 30.45,10.33 5.33,6.85 8.05,15.88 8.05,26.98z"/>
  <path id="7" fill="#332C2B" fill-rule="nonzero" d="M12848.74 13534.3c24.69,-19.04 49.27,-28.5 73.75,-28.5 31.76,0 57.21,8.59 76.46,25.89 19.25,17.29 28.82,41.55 28.82,72.76l0 160.21c0,5.11 0.44,10.33 1.2,15.99 0.87,5.55 4.35,13.81 10.66,24.69l-88.65 0 0 -195.45c0,-16.21 -4.13,-28.5 -12.4,-36.76 -8.37,-8.27 -20.99,-12.4 -37.96,-12.4 -14.57,0 -31.65,7.39 -51.33,22.08l0 181.85c0,5.11 0.43,10.33 1.19,15.99 0.87,5.55 4.35,13.81 10.66,24.69l-88.64 0 0 -296.6 38.28 0c15.01,0 25.13,3.48 30.68,10.33 3.8,5.11 6.2,10.12 7.28,15.23z"/>
  <path id="8" fill="#332C2B" fill-rule="nonzero" d="M13140.34 13510.04l0 -55.58c0,-31.21 8.7,-55.03 26.1,-71.67 17.41,-16.53 43.29,-24.8 77.44,-24.8 22.3,0 45.14,5.33 68.63,15.99l-9.46 52.86c-20.99,-9.36 -37.74,-13.92 -50.03,-13.92 -12.18,0 -21.21,2.72 -27.08,8.26 -5.88,5.66 -8.81,16.75 -8.81,33.61l0 53.95 81.35 0 0 17.62c0,12.94 -3.59,22.08 -10.76,27.41 -7.18,5.22 -17.08,7.83 -29.91,7.83l-40.68 0 0 243.74 -76.79 0 0 -243.74 -44.59 0 0 -45.57 44.59 -5.99z"/>
  <path id="9" fill="#332C2B" fill-rule="nonzero" d="M13539.4 13728.99c12.62,-16.32 18.93,-39.92 18.93,-71.03 0,-30.99 -6.31,-55.03 -18.93,-71.89 -12.73,-16.97 -28.93,-25.34 -48.73,-25.34 -19.9,0 -36.11,8.37 -48.72,25.34 -12.73,16.86 -19.04,40.9 -19.04,71.89 0,31.11 6.31,54.71 19.04,71.03 12.61,16.31 28.82,24.47 48.72,24.47 19.8,0 36,-8.16 48.73,-24.47zm54.93 -182.51c27.19,27.08 40.78,64.28 40.78,111.48 0,47.32 -13.59,84.19 -40.78,110.62 -27.3,26.54 -61.78,39.81 -103.66,39.81 -41.87,0 -76.46,-13.27 -103.65,-39.81 -27.3,-26.43 -40.9,-63.3 -40.9,-110.62 0,-47.2 13.6,-84.4 40.9,-111.48 27.19,-27.19 61.78,-40.68 103.65,-40.68 41.88,0 76.36,13.49 103.66,40.68z"/>
  <path id="10" fill="#332C2B" fill-rule="nonzero" d="M13774.66 13544.3c14.03,-25.66 32.3,-38.5 54.92,-38.5 15.67,0 29.15,2.61 40.68,7.83l-7.5 68.63c-10.12,-8.48 -23.39,-12.72 -39.81,-12.72 -18.16,0 -34.26,11.2 -48.29,33.61l0 161.51c0,5.11 0.43,10.33 1.19,15.99 0.87,5.55 4.35,13.81 10.66,24.69l-88.64 0 0 -296.6 38.28 0c15.01,0 25.13,3.48 30.46,10.33 5.44,6.96 8.05,14.03 8.05,21.32l0 3.91z"/>
  <path id="11" fill="#332C2B" fill-rule="nonzero" d="M14167.73 13543.65c28.61,-25.23 54.93,-37.85 78.96,-37.85 31.76,0 56.24,8.16 73.42,24.58 17.19,16.32 25.89,39.16 25.89,68.2l0 166.08c0,5.11 0.32,10.33 1.19,15.99 0.76,5.55 4.35,13.81 10.55,24.69l-88.64 0 0 -201.22c0,-14.35 -3.15,-25.23 -9.57,-32.52 -6.31,-7.28 -17.95,-10.87 -34.7,-10.87 -11.74,0 -26.32,6.74 -43.72,20.34 0.87,5.43 1.2,11.31 1.2,17.51l0 166.08c0,5.11 0.43,10.33 1.19,15.99 0.87,5.55 4.35,13.81 10.66,24.69l-88.64 0 0 -201.22c0,-14.35 -3.16,-25.23 -9.57,-32.52 -6.31,-7.28 -17.95,-10.87 -34.7,-10.87 -13.16,0 -31.32,9.79 -54.38,29.36l0 174.57c0,5.11 0.43,10.33 1.19,15.99 0.87,5.55 4.35,13.81 10.66,24.69l-88.64 0 0 -296.6 38.28 0c15.01,0 25.13,3.48 30.46,10.33 5.44,6.96 8.05,14.03 8.05,21.32l0 0.87c27.3,-23.71 52.75,-35.46 76.24,-35.46 31.76,0 56.23,8.16 73.42,24.58 4.24,4.03 8.05,8.49 11.2,13.27z"/>
  <path id="12" fill="#332C2B" fill-rule="nonzero" d="M14577.55 13660.25c-32.41,8.26 -54.71,16.64 -67.11,24.9 -15.77,10.66 -23.6,22.41 -23.6,35.24 0,10.88 2.83,19.15 8.59,24.8 5.77,5.77 14.69,8.6 26.87,8.6 16.75,0 35.24,-6.42 55.25,-19.15l0 -74.39zm3.92 122.9c-22.41,17.08 -45.25,25.56 -68.31,25.56 -34.15,0 -59.93,-8.37 -77.33,-24.91 -17.4,-16.64 -26.1,-36.65 -26.1,-60.14 0,-23.82 7.39,-42.31 22.29,-55.47 14.91,-13.16 33.4,-24.26 55.69,-33.18 18.17,-7.28 48.19,-16.2 89.84,-26.97l0 -1.2c0,-15.77 -4.13,-27.4 -12.29,-34.91 -8.16,-7.5 -19.9,-11.2 -35.02,-11.2 -23.06,0 -53.62,6.74 -91.69,20.34l0 -53.19c36.44,-14.68 71.24,-22.08 104.42,-22.08 33.6,0 60.58,8.59 80.92,25.89 20.34,17.29 30.45,41.55 30.45,72.76l0 154.45c0,8.7 0.65,16.64 1.85,23.71 1.2,7.07 4.89,14.68 11.2,22.73l-82.55 0 -3.37 -22.19z"/>
  <path id="13" fill="#332C2B" fill-rule="nonzero" d="M14744.94 13642.85c-12.73,-15.34 -19.04,-32.63 -19.04,-52.1 0,-25.89 10.45,-46.55 31.11,-61.89 20.78,-15.45 48.95,-23.06 84.62,-23.06 26.21,0 53.95,6.09 83.1,18.49l-9.36 64.93c-29.36,-19.03 -52.97,-28.49 -70.8,-28.49 -14.69,0 -25.35,2.39 -31.87,7.28 -6.42,4.79 -9.68,11.64 -9.68,20.34 0,7.29 3.59,14.36 10.77,21.21 7.18,6.86 23.05,15.12 47.53,24.69 24.47,9.68 43.07,21.65 55.68,35.9 12.62,14.24 18.93,31.1 18.93,50.46 0,25.78 -10.22,46.88 -30.78,63.3 -20.56,16.54 -47.75,24.8 -81.79,24.8 -30.35,0 -62,-7.18 -94.95,-21.53l0 -65.26c37.19,21.21 68.84,31.87 94.95,31.87 12.51,0 21.64,-2.4 27.19,-7.18 5.55,-4.79 8.37,-10.55 8.37,-17.51 0,-9.25 -3.59,-17.3 -10.65,-24.04 -7.07,-6.85 -22.95,-15.01 -47.54,-24.8 -24.58,-9.68 -43.17,-22.19 -55.79,-37.41z"/>
  <path id="14" fill="#332C2B" fill-rule="nonzero" d="M14993.68 13428.03c0,-10.55 2.5,-19.03 7.61,-25.66 5.01,-6.53 14.69,-9.79 28.83,-9.79l14.57 0c14.14,0 23.71,3.26 28.82,9.79 5.01,6.63 7.62,15.11 7.62,25.66l0 8.49c0,10.33 -2.61,18.81 -7.62,25.34 -5.11,6.63 -14.68,9.9 -28.82,9.9l-14.57 0c-14.14,0 -23.82,-3.27 -28.83,-9.9 -5.11,-6.53 -7.61,-15.01 -7.61,-25.34l0 -8.49zm82.23 118.12l0 218.51c0,5.11 0.43,10.33 1.19,15.99 0.87,5.55 4.35,13.81 10.66,24.69l-88.64 0 0 -296.6 38.28 0c15.01,0 25.13,3.48 30.46,10.33 5.44,6.96 8.05,15.88 8.05,27.08z"/>
  <path id="15" fill="#332C2B" fill-rule="nonzero" d="M15491.17 13441.96l0 322.7c0,5.11 0.43,10.33 1.2,15.99 0.76,5.55 4.35,13.81 10.65,24.69l-88.64 0 0 -363.38 -128.12 0 0 -55.8 333.25 0 0 17.62c0,12.94 -4.02,22.51 -12.29,28.82 -8.16,6.31 -18.6,9.36 -31.43,9.36l-84.62 0z"/>
  <path id="16" fill="#332C2B" fill-rule="nonzero" d="M15675.96 13623.81l115.4 0c-0.65,-15.55 -5.77,-30.02 -15.56,-43.29 -9.68,-13.16 -22.95,-19.79 -39.69,-19.79 -16.86,0 -31.55,8.05 -44.05,24.25 -7.84,10.12 -13.27,23.06 -16.1,38.83zm-1.74 48.84c2.61,22.95 10.44,41.22 23.6,55.03 16.42,17.19 37.31,25.78 62.54,25.78 28.71,0 61.56,-10.55 98.32,-31.54l0 65.47c-34.8,14.03 -70.04,21 -105.93,21 -45.69,0 -83.21,-13.82 -112.58,-41.34 -29.36,-27.51 -44.05,-64.82 -44.05,-111.91 0,-43.4 13.6,-79.08 40.9,-107.14 27.19,-28.17 60.26,-42.2 99.09,-42.2 41,0 73.63,13.6 97.67,40.79 24.14,27.19 36.21,62.21 36.21,105.17 0,5.66 -0.65,12.62 -1.84,20.89l-193.93 0z"/>
  <path id="17" fill="#332C2B" fill-rule="nonzero" d="M16006.5 13544.3c14.03,-25.66 32.3,-38.5 54.92,-38.5 15.67,0 29.15,2.61 40.68,7.83l-7.5 68.63c-10.12,-8.48 -23.39,-12.72 -39.81,-12.72 -18.16,0 -34.26,11.2 -48.29,33.61l0 161.51c0,5.11 0.43,10.33 1.19,15.99 0.87,5.55 4.35,13.81 10.66,24.69l-88.64 0 0 -296.6 38.28 0c15.01,0 25.13,3.48 30.46,10.33 5.44,6.96 8.05,14.03 8.05,21.32l0 3.91z"/>
  <path id="18" fill="#332C2B" fill-rule="nonzero" d="M16156.48 13428.03c0,-10.55 2.5,-19.03 7.61,-25.66 5.01,-6.53 14.69,-9.79 28.83,-9.79l14.57 0c14.14,0 23.71,3.26 28.82,9.79 5.01,6.63 7.62,15.11 7.62,25.66l0 8.49c0,10.33 -2.61,18.81 -7.62,25.34 -5.11,6.63 -14.68,9.9 -28.82,9.9l-14.57 0c-14.14,0 -23.82,-3.27 -28.83,-9.9 -5.11,-6.53 -7.61,-15.01 -7.61,-25.34l0 -8.49zm82.23 118.12l0 218.51c0,5.11 0.43,10.33 1.19,15.99 0.87,5.55 4.35,13.81 10.66,24.69l-88.64 0 0 -296.6 38.28 0c15.01,0 25.13,3.48 30.46,10.33 5.44,6.96 8.05,15.88 8.05,27.08z"/>
  <path id="19" fill="#332C2B" fill-rule="nonzero" d="M16399.89 13534.3c24.69,-19.04 49.27,-28.5 73.75,-28.5 31.76,0 57.21,8.59 76.46,25.89 19.25,17.29 28.82,41.55 28.82,72.76l0 160.21c0,5.11 0.44,10.33 1.2,15.99 0.87,5.55 4.35,13.81 10.66,24.69l-88.65 0 0 -195.45c0,-16.21 -4.13,-28.5 -12.4,-36.76 -8.37,-8.27 -20.99,-12.4 -37.96,-12.4 -14.57,0 -31.65,7.39 -51.33,22.08l0 181.85c0,5.11 0.43,10.33 1.19,15.99 0.87,5.55 4.35,13.81 10.66,24.69l-88.64 0 0 -296.6 38.28 0c15.01,0 25.13,3.48 30.68,10.33 3.8,5.11 6.2,10.12 7.28,15.23z"/>
  <path id="20" fill="#332C2B" fill-rule="nonzero" d="M16692.14 13510.04l6.09 -85.92 31.54 0c15.01,0 25.13,3.37 30.46,10.33 5.44,6.85 8.05,15.88 8.05,26.98l0 47.31 81.35 0 0 17.62c0,12.94 -3.59,22.08 -10.76,27.41 -7.18,5.22 -17.08,7.83 -29.91,7.83l-40.68 0 0 149.98c0,16.75 2.93,27.96 8.81,33.61 5.87,5.77 14.9,8.6 27.08,8.6 12.29,0 29.04,-4.79 50.03,-14.36l9.46 53.18c-23.49,10.66 -46.33,16.1 -68.63,16.1 -34.15,0 -60.03,-8.37 -77.44,-24.91 -17.4,-16.64 -26.1,-40.56 -26.1,-72l0 -150.2 -44.59 0 0 -45.57 45.24 -5.99z"/>
  <path id="21" fill="#332C2B" fill-rule="nonzero" d="M16988.96 13623.81l115.4 0c-0.65,-15.55 -5.77,-30.02 -15.56,-43.29 -9.68,-13.16 -22.95,-19.79 -39.69,-19.79 -16.86,0 -31.55,8.05 -44.05,24.25 -7.84,10.12 -13.27,23.06 -16.1,38.83zm-1.74 48.84c2.61,22.95 10.44,41.22 23.6,55.03 16.42,17.19 37.31,25.78 62.54,25.78 28.71,0 61.56,-10.55 98.32,-31.54l0 65.47c-34.8,14.03 -70.04,21 -105.93,21 -45.69,0 -83.21,-13.82 -112.58,-41.34 -29.36,-27.51 -44.05,-64.82 -44.05,-111.91 0,-43.4 13.6,-79.08 40.9,-107.14 27.19,-28.17 60.26,-42.2 99.09,-42.2 41,0 73.63,13.6 97.67,40.79 24.14,27.19 36.21,62.21 36.21,105.17 0,5.66 -0.65,12.62 -1.84,20.89l-193.93 0z"/>
  <path id="22" fill="#332C2B" fill-rule="nonzero" d="M17427.61 13717.02l0.33 -134.21c-0.66,-0.98 -1.31,-1.85 -1.85,-2.72 -9.68,-12.95 -25.02,-19.36 -45.9,-19.36 -20.78,0 -38.5,9.35 -53.19,28.17 -14.68,18.81 -22.08,42.85 -22.08,72 0,27.3 6.31,49.49 19.04,66.78 12.61,17.19 28.82,25.78 48.72,25.78 19.8,0 36.11,-8.7 48.84,-26.1 2.17,-3.05 4.24,-6.53 6.09,-10.34zm11.53 -184.57l23.38 -23.39 42.2 0 0 280.84c0,40.67 -11.63,73.74 -34.91,99.19 -23.28,25.56 -58.3,38.28 -105.07,38.28 -21.42,0 -46.98,-3.8 -76.78,-11.52l0 -51.89c29.8,5.66 53.29,8.49 70.69,8.49 24.15,0 41.66,-6.2 52.54,-18.49 10.98,-12.4 16.42,-30.89 16.42,-55.58l0 -21.32c-20.88,20.88 -46.01,31.33 -75.27,31.33 -36.21,0 -66.02,-13.82 -89.29,-41.44 -23.28,-27.63 -34.92,-62.98 -34.92,-106.05 0,-45.14 13.17,-82.34 39.38,-111.48 26.21,-29.04 60.58,-43.62 103.32,-43.62 27.3,0 50.04,8.81 68.31,26.65z"/>
  <path id="23" fill="#332C2B" fill-rule="nonzero" d="M17657 13544.3c14.03,-25.66 32.3,-38.5 54.92,-38.5 15.67,0 29.15,2.61 40.68,7.83l-7.5 68.63c-10.12,-8.48 -23.39,-12.72 -39.81,-12.72 -18.16,0 -34.26,11.2 -48.29,33.61l0 161.51c0,5.11 0.43,10.33 1.19,15.99 0.87,5.55 4.35,13.81 10.66,24.69l-88.64 0 0 -296.6 38.28 0c15.01,0 25.13,3.48 30.46,10.33 5.44,6.96 8.05,14.03 8.05,21.32l0 3.91z"/>
  <path id="24" fill="#332C2B" fill-rule="nonzero" d="M17963.6 13660.25c-32.41,8.26 -54.71,16.64 -67.11,24.9 -15.77,10.66 -23.6,22.41 -23.6,35.24 0,10.88 2.83,19.15 8.59,24.8 5.77,5.77 14.69,8.6 26.87,8.6 16.75,0 35.24,-6.42 55.25,-19.15l0 -74.39zm3.92 122.9c-22.41,17.08 -45.25,25.56 -68.31,25.56 -34.15,0 -59.93,-8.37 -77.33,-24.91 -17.4,-16.64 -26.1,-36.65 -26.1,-60.14 0,-23.82 7.39,-42.31 22.29,-55.47 14.91,-13.16 33.4,-24.26 55.69,-33.18 18.17,-7.28 48.19,-16.2 89.84,-26.97l0 -1.2c0,-15.77 -4.13,-27.4 -12.29,-34.91 -8.16,-7.5 -19.9,-11.2 -35.02,-11.2 -23.06,0 -53.62,6.74 -91.69,20.34l0 -53.19c36.44,-14.68 71.24,-22.08 104.42,-22.08 33.6,0 60.58,8.59 80.92,25.89 20.34,17.29 30.45,41.55 30.45,72.76l0 154.45c0,8.7 0.65,16.64 1.85,23.71 1.2,7.07 4.89,14.68 11.2,22.73l-82.55 0 -3.37 -22.19z"/>
  <path id="25" fill="#332C2B" fill-rule="nonzero" d="M18130.99 13642.85c-12.73,-15.34 -19.04,-32.63 -19.04,-52.1 0,-25.89 10.45,-46.55 31.11,-61.89 20.78,-15.45 48.95,-23.06 84.62,-23.06 26.21,0 53.95,6.09 83.1,18.49l-9.36 64.93c-29.36,-19.03 -52.97,-28.49 -70.8,-28.49 -14.69,0 -25.35,2.39 -31.87,7.28 -6.42,4.79 -9.68,11.64 -9.68,20.34 0,7.29 3.59,14.36 10.77,21.21 7.18,6.86 23.05,15.12 47.53,24.69 24.47,9.68 43.07,21.65 55.68,35.9 12.62,14.24 18.93,31.1 18.93,50.46 0,25.78 -10.22,46.88 -30.78,63.3 -20.56,16.54 -47.75,24.8 -81.79,24.8 -30.35,0 -62,-7.18 -94.95,-21.53l0 -65.26c37.19,21.21 68.84,31.87 94.95,31.87 12.51,0 21.64,-2.4 27.19,-7.18 5.55,-4.79 8.37,-10.55 8.37,-17.51 0,-9.25 -3.59,-17.3 -10.65,-24.04 -7.07,-6.85 -22.95,-15.01 -47.54,-24.8 -24.58,-9.68 -43.17,-22.19 -55.79,-37.41z"/>
  <path id="26" fill="#332C2B" fill-rule="nonzero" d="M18379.73 13428.03c0,-10.55 2.5,-19.03 7.61,-25.66 5.01,-6.53 14.69,-9.79 28.83,-9.79l14.57 0c14.14,0 23.71,3.26 28.82,9.79 5.01,6.63 7.62,15.11 7.62,25.66l0 8.49c0,10.33 -2.61,18.81 -7.62,25.34 -5.11,6.63 -14.68,9.9 -28.82,9.9l-14.57 0c-14.14,0 -23.82,-3.27 -28.83,-9.9 -5.11,-6.53 -7.61,-15.01 -7.61,-25.34l0 -8.49zm82.23 118.12l0 218.51c0,5.11 0.43,10.33 1.19,15.99 0.87,5.55 4.35,13.81 10.66,24.69l-88.64 0 0 -296.6 38.28 0c15.01,0 25.13,3.48 30.46,10.33 5.44,6.96 8.05,15.88 8.05,27.08z"/>
  <path id="27" fill="#332C2B" fill-rule="nonzero" d="M18805.54 13628.71c-83.2,-30.78 -124.75,-73.53 -124.75,-128.46 0,-33.71 12.73,-61.67 38.07,-83.74 25.45,-22.08 60.36,-33.07 104.96,-33.07 39.59,0 77.87,8.16 114.74,24.58l-13.7 60.04c-31.33,-19.8 -63.3,-29.69 -95.61,-29.69 -23.49,0 -41.33,5.11 -53.4,15.44 -12.18,10.33 -18.27,23.93 -18.27,40.68 0,23.71 24.47,45.03 73.52,64.06 84.19,30.02 126.17,74.29 126.17,132.91 0,33.83 -13.16,61.78 -39.59,83.97 -26.32,22.19 -61.89,33.28 -106.37,33.28 -39.27,0 -81.14,-7.94 -125.63,-23.71l0 -67.11c47.32,23.93 88.43,35.9 123.24,35.9 21.64,0 38.93,-5.33 51.98,-15.88 13.06,-10.45 19.58,-24.04 19.58,-40.57 0,-27.63 -24.9,-50.47 -74.94,-68.63z"/>
  <path id="28" fill="#332C2B" fill-rule="nonzero" d="M19172.51 13660.25c-32.41,8.26 -54.71,16.64 -67.11,24.9 -15.77,10.66 -23.6,22.41 -23.6,35.24 0,10.88 2.83,19.15 8.59,24.8 5.77,5.77 14.69,8.6 26.87,8.6 16.75,0 35.24,-6.42 55.25,-19.15l0 -74.39zm3.92 122.9c-22.41,17.08 -45.25,25.56 -68.31,25.56 -34.15,0 -59.93,-8.37 -77.33,-24.91 -17.4,-16.64 -26.1,-36.65 -26.1,-60.14 0,-23.82 7.39,-42.31 22.29,-55.47 14.91,-13.16 33.4,-24.26 55.69,-33.18 18.17,-7.28 48.19,-16.2 89.84,-26.97l0 -1.2c0,-15.77 -4.13,-27.4 -12.29,-34.91 -8.16,-7.5 -19.9,-11.2 -35.02,-11.2 -23.06,0 -53.62,6.74 -91.69,20.34l0 -53.19c36.44,-14.68 71.24,-22.08 104.42,-22.08 33.6,0 60.58,8.59 80.92,25.89 20.34,17.29 30.45,41.55 30.45,72.76l0 154.45c0,8.7 0.65,16.64 1.85,23.71 1.2,7.07 4.89,14.68 11.2,22.73l-82.55 0 -3.37 -22.19z"/>
  <path id="29" fill="#332C2B" fill-rule="nonzero" d="M19363.39 13510.04l6.09 -85.92 31.54 0c15.01,0 25.13,3.37 30.46,10.33 5.44,6.85 8.05,15.88 8.05,26.98l0 47.31 81.35 0 0 17.62c0,12.94 -3.59,22.08 -10.76,27.41 -7.18,5.22 -17.08,7.83 -29.91,7.83l-40.68 0 0 149.98c0,16.75 2.93,27.96 8.81,33.61 5.87,5.77 14.9,8.6 27.08,8.6 12.29,0 29.04,-4.79 50.03,-14.36l9.46 53.18c-23.49,10.66 -46.33,16.1 -68.63,16.1 -34.15,0 -60.03,-8.37 -77.44,-24.91 -17.4,-16.64 -26.1,-40.56 -26.1,-72l0 -150.2 -44.59 0 0 -45.57 45.24 -5.99z"/>
  <path id="30" fill="#332C2B" fill-rule="nonzero" d="M19771.04 13732.79l0 -224.05 38.18 0c15.01,0 25.23,3.48 30.56,10.33 5.33,6.96 8.05,15.88 8.05,27.08l0 218.51c0,5.11 0.43,10.33 1.19,15.99 0.87,5.55 4.35,13.81 10.66,24.69l-81.03 0 -4.56 -25.23c-23.28,18.81 -47.97,28.28 -74.07,28.28 -31.76,0 -57.32,-8.71 -76.47,-26 -19.25,-17.29 -28.93,-41.55 -28.93,-72.65l0 -201 38.29 0c15.01,0 25.12,3.48 30.56,10.33 5.33,6.96 8.05,15.88 8.05,27.08l0 158.15c0,16.2 4.13,28.38 12.51,36.65 8.37,8.38 20.99,12.51 37.85,12.51 13.92,0 30.34,-6.85 49.16,-20.67z"/>
  <path id="31" fill="#332C2B" fill-rule="nonzero" d="M20294.31 13625.99l-52.54 -131.17 -50.68 131.17 103.22 0zm-125.08 55.79l-47.64 123.56 -68.31 0 149.01 -376.98c2.07,-5.22 2.5,-11.2 1.52,-17.73 -0.98,-6.63 -4.78,-14.79 -11.2,-24.47l89.19 0 152.16 375.78c1.96,4.9 4.78,10.55 8.48,17.19 3.59,6.52 10.77,15.33 21.54,26.21l-98.11 0 -49.38 -123.56 -147.26 0z"/>
  <path id="32" fill="#332C2B" fill-rule="nonzero" d="M20555.88 13510.04l6.09 -85.92 31.54 0c15.01,0 25.13,3.37 30.46,10.33 5.44,6.85 8.05,15.88 8.05,26.98l0 47.31 81.35 0 0 17.62c0,12.94 -3.59,22.08 -10.76,27.41 -7.18,5.22 -17.08,7.83 -29.91,7.83l-40.68 0 0 149.98c0,16.75 2.93,27.96 8.81,33.61 5.87,5.77 14.9,8.6 27.08,8.6 12.29,0 29.04,-4.79 50.03,-14.36l9.46 53.18c-23.49,10.66 -46.33,16.1 -68.63,16.1 -34.15,0 -60.03,-8.37 -77.44,-24.91 -17.4,-16.64 -26.1,-40.56 -26.1,-72l0 -150.2 -44.59 0 0 -45.57 45.24 -5.99z"/>
  <path id="33" fill="#332C2B" fill-rule="nonzero" d="M20938.62 13660.25c-32.41,8.26 -54.71,16.64 -67.11,24.9 -15.77,10.66 -23.6,22.41 -23.6,35.24 0,10.88 2.83,19.15 8.59,24.8 5.77,5.77 14.69,8.6 26.87,8.6 16.75,0 35.24,-6.42 55.25,-19.15l0 -74.39zm3.92 122.9c-22.41,17.08 -45.25,25.56 -68.31,25.56 -34.15,0 -59.93,-8.37 -77.33,-24.91 -17.4,-16.64 -26.1,-36.65 -26.1,-60.14 0,-23.82 7.39,-42.31 22.29,-55.47 14.91,-13.16 33.4,-24.26 55.69,-33.18 18.17,-7.28 48.19,-16.2 89.84,-26.97l0 -1.2c0,-15.77 -4.13,-27.4 -12.29,-34.91 -8.16,-7.5 -19.9,-11.2 -35.02,-11.2 -23.06,0 -53.62,6.74 -91.69,20.34l0 -53.19c36.44,-14.68 71.24,-22.08 104.42,-22.08 33.6,0 60.58,8.59 80.92,25.89 20.34,17.29 30.45,41.55 30.45,72.76l0 154.45c0,8.7 0.65,16.64 1.85,23.71 1.2,7.07 4.89,14.68 11.2,22.73l-82.55 0 -3.37 -22.19z"/>
  <path id="34" fill="#332C2B" fill-rule="nonzero" d="M21175.29 13542.78c21.65,-24.69 48.51,-36.98 80.49,-36.98 36,0 65.58,13.81 88.75,41.44 23.17,27.52 34.8,62.98 34.8,106.05 0,45.13 -13.05,82.22 -39.15,111.37 -26.1,29.15 -60.37,43.73 -102.67,43.73 -24.26,0 -44.92,-7.07 -62.22,-21.21l0 94.4c0,4.79 0.44,10.01 1.31,15.78 0.76,5.65 4.35,13.92 10.55,24.79l-88.65 0 0 -413.41 38.29 0c15.01,0 25.12,3.48 30.45,10.33 5.44,6.96 8.05,14.03 8.05,21.32l0 2.39zm0 65.26l0 114.75c1.85,4.24 4.03,7.94 6.42,11.2 9.46,12.94 24.69,19.47 45.57,19.47 20.78,0 38.5,-9.46 53.19,-28.28 14.68,-18.82 22.08,-42.74 22.08,-71.89 0,-27.3 -6.42,-49.6 -19.04,-66.79 -12.61,-17.18 -28.82,-25.77 -48.72,-25.77 -19.8,0 -36,8.59 -48.51,25.77 -4.46,6.1 -8.16,13.27 -10.99,21.54z"/>
  <g id="_1847675815632">
   <path fill="#FEFEFE" fill-rule="nonzero" d="M3397.16 7780.22l146.55 -947.47c8.41,-54.36 59.31,-91.62 113.67,-83.21 7.22,1.12 14.14,2.99 20.69,5.52l893.85 346.75 600.69 -747.26c34.51,-42.92 97.31,-49.74 140.23,-15.23 6.21,4.99 11.66,10.58 16.34,16.61l599.58 745.88 893.83 -346.8c51.34,-19.84 109.07,5.69 128.91,57.03 3.14,8.13 5.14,16.42 6.09,24.69l145.93 943.49 947.47 146.55c54.36,8.41 91.62,59.31 83.21,113.67 -1.12,7.22 -2.99,14.14 -5.52,20.69l-346.75 893.85 747.26 600.69c42.92,34.51 49.74,97.31 15.23,140.23 -4.99,6.21 -10.58,11.66 -16.61,16.34l-745.88 599.58 346.8 893.83c19.84,51.34 -5.69,109.07 -57.03,128.91 -8.13,3.14 -16.42,5.14 -24.69,6.09l-943.49 145.93 -146.55 947.47c-8.41,54.36 -59.31,91.62 -113.67,83.21 -7.22,-1.12 -14.14,-2.99 -20.69,-5.52l-893.85 -346.75 -600.69 747.26c-34.51,42.92 -97.31,49.74 -140.23,15.23 -6.21,-4.99 -11.66,-10.58 -16.34,-16.61l-599.58 -745.88 -893.83 346.8c-51.34,19.84 -109.07,-5.69 -128.91,-57.03 -3.14,-8.13 -5.14,-16.42 -6.09,-24.69l-145.93 -943.49 -947.47 -146.55c-54.36,-8.41 -91.62,-59.31 -83.21,-113.67 1.12,-7.22 2.99,-14.14 5.52,-20.69l346.75 -893.85 -747.26 -600.69c-42.92,-34.51 -49.74,-97.31 -15.23,-140.23 4.99,-6.21 10.58,-11.66 16.61,-16.34l745.88 -599.58 -346.8 -893.83c-19.84,-51.34 5.69,-109.07 57.03,-128.91 8.13,-3.14 16.42,-5.14 24.69,-6.09l943.49 -145.93zm324.48 -794.49l-138.47 895.18c-5.76,42.59 -38.86,78.14 -83.49,85.04l-897.01 138.75 326.89 842.51c17.52,40.22 6.86,88.73 -28.97,117.54l-707.4 568.65 707.4 568.65c32.9,26.5 46.51,72.17 30.47,113.67l-328.39 846.38 895.18 138.47c42.59,5.76 78.14,38.86 85.04,83.49l138.75 897.01 842.51 -326.89c40.22,-17.52 88.73,-6.86 117.54,28.97l568.65 707.4 568.65 -707.4c26.5,-32.9 72.17,-46.51 113.67,-30.47l846.38 328.39 138.47 -895.18c5.76,-42.59 38.86,-78.14 83.49,-85.04l897.01 -138.75 -326.89 -842.51c-17.52,-40.22 -6.86,-88.73 28.97,-117.54l707.4 -568.65 -707.4 -568.65c-32.9,-26.5 -46.51,-72.17 -30.47,-113.67l328.39 -846.38 -895.18 -138.47c-42.59,-5.76 -78.14,-38.86 -85.04,-83.49l-138.75 -897.01 -842.51 326.89c-40.22,17.52 -88.73,6.86 -117.54,-28.97l-568.65 -707.4 -568.65 707.4c-26.5,32.9 -72.17,46.51 -113.67,30.47l-846.38 -328.39z"/>
   <path fill="#FEFEFE" fill-rule="nonzero" d="M2984.79 9633.4l-479.49 -654.97c-32.57,-44.44 -22.95,-106.88 21.49,-139.45 5.97,-4.38 12.28,-7.99 18.79,-10.86l742.72 -327.58 -87.78 -807.19c-5.82,-54.79 33.88,-103.95 88.67,-109.77 7.85,-0.83 15.59,-0.73 23.1,0.22l805.19 87.56 327.5 -742.76c22.21,-50.48 81.16,-73.39 131.64,-51.18 8.33,3.66 15.9,8.33 22.64,13.79l651.08 476.64 654.97 -479.49c44.44,-32.57 106.88,-22.95 139.45,21.49 4.38,5.97 7.99,12.28 10.86,18.79l327.58 742.72 807.19 -87.78c54.79,-5.82 103.95,33.88 109.77,88.67 0.83,7.85 0.73,15.59 -0.22,23.1l-87.56 805.19 742.76 327.5c50.48,22.21 73.39,81.16 51.18,131.64 -3.66,8.33 -8.33,15.9 -13.79,22.64l-476.64 651.08 479.49 654.97c32.57,44.44 22.95,106.88 -21.49,139.45 -5.97,4.38 -12.28,7.99 -18.79,10.86l-742.72 327.58 87.78 807.19c5.82,54.79 -33.88,103.95 -88.67,109.77 -7.85,0.83 -15.59,0.73 -23.1,-0.22l-805.19 -87.56 -327.5 742.76c-22.21,50.48 -81.16,73.39 -131.64,51.18 -8.33,-3.66 -15.9,-8.33 -22.64,-13.79l-651.08 -476.64 -654.97 479.49c-44.44,32.57 -106.88,22.95 -139.45,-21.49 -4.38,-5.97 -7.99,-12.28 -10.86,-18.79l-327.58 -742.72 -807.19 87.78c-54.79,5.82 -103.95,-33.88 -109.77,-88.67 -0.83,-7.85 -0.73,-15.59 0.22,-23.1l87.56 -805.19 -742.76 -327.5c-50.48,-22.21 -73.39,-81.16 -51.18,-131.64 3.66,-8.33 8.33,-15.9 13.79,-22.64l476.64 -651.08zm-245.14 -672.65l448.16 612.16c26.13,34.27 27.87,82.95 1.1,119.47l-449.26 613.67 695.98 306.88c38.66,17.09 63.69,57.68 58.99,101.96l-82.27 756.5 751.66 -81.74c43.66,-6.84 88.16,16.1 106.8,58.46l306.88 695.98 612.16 -448.16c34.27,-26.13 82.95,-27.87 119.47,-1.1l613.67 449.26 306.88 -695.98c17.09,-38.66 57.68,-63.69 101.96,-58.99l756.5 82.27 -81.74 -751.66c-6.84,-43.66 16.1,-88.16 58.46,-106.8l695.98 -306.88 -448.16 -612.16c-26.13,-34.27 -27.87,-82.95 -1.1,-119.47l449.26 -613.67 -695.98 -306.88c-38.66,-17.09 -63.69,-57.68 -58.99,-101.96l82.27 -756.5 -751.66 81.74c-43.66,6.84 -88.16,-16.1 -106.8,-58.46l-306.88 -695.98 -612.16 448.16c-34.27,26.13 -82.95,27.87 -119.47,1.1l-613.67 -449.26 -306.88 695.98c-17.09,38.66 -57.68,63.69 -101.96,58.99l-756.5 -82.27 81.74 751.66c6.84,43.66 -16.1,88.16 -58.46,106.8l-695.98 306.88z"/>
   <path fill="#FEFEFE" fill-rule="nonzero" d="M3899.84 8282.9l101.66 -657.25c8.41,-54.36 59.31,-91.62 113.67,-83.21 7.22,1.12 14.14,2.99 20.69,5.52l620.07 240.53 416.68 -518.37c34.51,-42.92 97.31,-49.74 140.23,-15.23 6.21,4.99 11.66,10.58 16.34,16.61l415.57 516.99 620.05 -240.58c51.34,-19.84 109.07,5.69 128.91,57.03 3.14,8.13 5.14,16.42 6.09,24.69l101.04 653.27 657.25 101.66c54.36,8.41 91.62,59.31 83.21,113.67 -1.12,7.22 -2.99,14.14 -5.52,20.69l-240.53 620.07 518.37 416.68c42.92,34.51 49.74,97.31 15.23,140.23 -4.99,6.21 -10.58,11.66 -16.61,16.34l-516.99 415.57 240.58 620.05c19.84,51.34 -5.69,109.07 -57.03,128.91 -8.13,3.14 -16.42,5.14 -24.69,6.09l-653.27 101.04 -101.66 657.25c-8.41,54.36 -59.31,91.62 -113.67,83.21 -7.22,-1.12 -14.14,-2.99 -20.69,-5.52l-620.07 -240.53 -416.68 518.37c-34.51,42.92 -97.31,49.74 -140.23,15.23 -6.21,-4.99 -11.66,-10.58 -16.34,-16.61l-415.57 -516.99 -620.05 240.58c-51.34,19.84 -109.07,-5.69 -128.91,-57.03 -3.14,-8.13 -5.14,-16.42 -6.09,-24.69l-101.04 -653.27 -657.25 -101.66c-54.36,-8.41 -91.62,-59.31 -83.21,-113.67 1.12,-7.22 2.99,-14.14 5.52,-20.69l240.53 -620.07 -518.37 -416.68c-42.92,-34.51 -49.74,-97.31 -15.23,-140.23 4.99,-6.21 10.58,-11.66 16.61,-16.34l516.99 -415.57 -240.58 -620.05c-19.84,-51.34 5.69,-109.07 57.03,-128.91 8.13,-3.14 16.42,-5.14 24.69,-6.09l653.27 -101.04zm279.59 -504.26l-93.58 604.95c-5.76,42.58 -38.86,78.13 -83.49,85.04l-606.78 93.86 220.66 568.73c17.52,40.22 6.86,88.73 -28.97,117.54l-478.51 384.64 478.51 384.64c32.9,26.5 46.51,72.17 30.47,113.67l-222.16 572.6 604.95 93.58c42.58,5.76 78.13,38.86 85.04,83.49l93.86 606.78 568.73 -220.66c40.22,-17.52 88.73,-6.86 117.54,28.97l384.64 478.51 384.64 -478.51c26.5,-32.9 72.17,-46.51 113.67,-30.47l572.6 222.16 93.58 -604.95c5.76,-42.58 38.86,-78.14 83.49,-85.04l606.78 -93.86 -220.66 -568.73c-17.52,-40.22 -6.86,-88.73 28.97,-117.54l478.51 -384.64 -478.51 -384.64c-32.9,-26.5 -46.51,-72.17 -30.47,-113.67l222.16 -572.6 -604.95 -93.58c-42.58,-5.76 -78.14,-38.86 -85.04,-83.49l-93.86 -606.78 -568.73 220.66c-40.22,17.52 -88.73,6.86 -117.54,-28.97l-384.64 -478.51 -384.64 478.51c-26.5,32.9 -72.17,46.51 -113.67,30.47l-572.6 -222.16z"/>
   <path fill="#FEFEFE" fill-rule="nonzero" d="M3695.69 9633.4l-306 -418.01c-32.57,-44.44 -22.95,-106.88 21.49,-139.45 5.97,-4.38 12.28,-7.99 18.79,-10.86l473.99 -209.09 -56.03 -515.23c-5.82,-54.79 33.88,-103.95 88.67,-109.77 7.85,-0.83 15.59,-0.73 23.1,0.22l513.23 55.81 209.01 -474.03c22.21,-50.48 81.16,-73.39 131.64,-51.18 8.32,3.66 15.89,8.33 22.64,13.79l414.12 303.15 418.01 -306c44.44,-32.57 106.88,-22.95 139.45,21.49 4.38,5.97 7.99,12.28 10.86,18.79l209.09 473.99 515.23 -56.03c54.79,-5.82 103.95,33.88 109.77,88.67 0.83,7.85 0.73,15.59 -0.22,23.1l-55.81 513.23 474.03 209.01c50.48,22.21 73.39,81.16 51.18,131.64 -3.66,8.32 -8.33,15.89 -13.79,22.64l-303.15 414.12 306 418.01c32.57,44.44 22.95,106.88 -21.49,139.45 -5.97,4.38 -12.28,7.99 -18.79,10.86l-473.99 209.09 56.03 515.23c5.82,54.79 -33.88,103.95 -88.67,109.77 -7.85,0.83 -15.59,0.73 -23.1,-0.22l-513.23 -55.81 -209.01 474.03c-22.21,50.48 -81.16,73.39 -131.64,51.18 -8.32,-3.66 -15.89,-8.33 -22.64,-13.79l-414.12 -303.15 -418.01 306c-44.44,32.57 -106.88,22.95 -139.45,-21.49 -4.38,-5.97 -7.99,-12.28 -10.86,-18.79l-209.09 -473.99 -515.23 56.03c-54.79,5.82 -103.95,-33.88 -109.77,-88.67 -0.83,-7.85 -0.73,-15.59 0.22,-23.1l55.81 -513.23 -474.03 -209.01c-50.48,-22.21 -73.39,-81.16 -51.18,-131.64 3.66,-8.32 8.33,-15.89 13.79,-22.64l303.15 -414.12zm-71.65 -435.69l274.67 375.2c26.13,34.27 27.87,82.95 1.1,119.47l-275.77 376.71 427.25 188.39c38.66,17.09 63.69,57.68 58.99,101.96l-50.52 464.54 459.7 -49.99c43.66,-6.84 88.16,16.1 106.8,58.46l188.39 427.25 375.2 -274.67c34.27,-26.13 82.95,-27.87 119.47,-1.1l376.71 275.77 188.39 -427.25c17.09,-38.66 57.68,-63.69 101.96,-58.99l464.54 50.52 -49.99 -459.7c-6.84,-43.66 16.1,-88.16 58.46,-106.8l427.25 -188.39 -274.67 -375.2c-26.13,-34.27 -27.87,-82.95 -1.1,-119.47l275.77 -376.71 -427.25 -188.39c-38.66,-17.09 -63.69,-57.68 -58.99,-101.96l50.52 -464.54 -459.7 49.99c-43.66,6.84 -88.16,-16.1 -106.8,-58.46l-188.39 -427.25 -375.2 274.67c-34.27,26.13 -82.95,27.87 -119.47,1.1l-376.71 -275.77 -188.39 427.25c-17.09,38.66 -57.68,63.69 -101.96,58.99l-464.54 -50.52 49.99 459.7c6.84,43.66 -16.1,88.16 -58.46,106.8l-427.25 188.39z"/>
   <path fill="#FEFEFE" fill-rule="nonzero" d="M4402.53 8785.59l56.77 -367.03c8.41,-54.36 59.31,-91.62 113.67,-83.21 7.22,1.12 14.14,2.99 20.69,5.52l346.26 134.29 232.69 -289.47c34.51,-42.92 97.31,-49.74 140.23,-15.23 6.21,4.99 11.66,10.58 16.34,16.61l231.58 288.09 346.24 -134.34c51.34,-19.84 109.07,5.69 128.91,57.03 3.14,8.13 5.14,16.42 6.09,24.69l56.15 363.05 367.03 56.77c54.36,8.41 91.62,59.31 83.21,113.67 -1.12,7.22 -2.99,14.14 -5.52,20.69l-134.29 346.26 289.47 232.69c42.92,34.51 49.74,97.31 15.23,140.23 -4.99,6.21 -10.58,11.66 -16.61,16.34l-288.09 231.58 134.34 346.24c19.84,51.34 -5.69,109.07 -57.03,128.91 -8.13,3.14 -16.42,5.14 -24.69,6.09l-363.05 56.15 -56.77 367.03c-8.41,54.36 -59.31,91.62 -113.67,83.21 -7.22,-1.12 -14.14,-2.99 -20.69,-5.52l-346.26 -134.29 -232.69 289.47c-34.51,42.92 -97.31,49.74 -140.23,15.23 -6.21,-4.99 -11.66,-10.58 -16.34,-16.61l-231.58 -288.09 -346.24 134.34c-51.34,19.84 -109.07,-5.69 -128.91,-57.03 -3.14,-8.13 -5.14,-16.42 -6.09,-24.69l-56.15 -363.05 -367.03 -56.77c-54.36,-8.41 -91.62,-59.31 -83.21,-113.67 1.12,-7.22 2.99,-14.14 5.52,-20.69l134.29 -346.26 -289.47 -232.69c-42.92,-34.51 -49.74,-97.31 -15.23,-140.23 4.99,-6.21 10.58,-11.66 16.61,-16.34l288.09 -231.58 -134.34 -346.24c-19.84,-51.34 5.69,-109.07 57.03,-128.91 8.13,-3.14 16.42,-5.14 24.69,-6.09l363.05 -56.15zm234.7 -214.05l-48.69 314.74c-5.76,42.59 -38.86,78.14 -83.49,85.04l-316.57 48.97 114.43 294.92c17.52,40.22 6.86,88.73 -28.97,117.54l-249.61 200.65 249.61 200.65c32.9,26.5 46.51,72.17 30.47,113.67l-115.93 298.79 314.74 48.69c42.59,5.76 78.14,38.86 85.04,83.49l48.97 316.57 294.92 -114.43c40.22,-17.52 88.73,-6.86 117.54,28.97l200.65 249.61 200.65 -249.61c26.5,-32.9 72.17,-46.51 113.67,-30.47l298.79 115.93 48.69 -314.74c5.76,-42.59 38.86,-78.14 83.49,-85.04l316.57 -48.97 -114.43 -294.92c-17.52,-40.22 -6.86,-88.73 28.97,-117.54l249.61 -200.65 -249.61 -200.65c-32.9,-26.5 -46.51,-72.17 -30.47,-113.67l115.93 -298.79 -314.74 -48.69c-42.59,-5.76 -78.14,-38.86 -85.04,-83.49l-48.97 -316.57 -294.92 114.43c-40.22,17.52 -88.73,6.86 -117.54,-28.97l-200.65 -249.61 -200.65 249.61c-26.5,32.9 -72.17,46.51 -113.67,30.47l-298.79 -115.93z"/>
  </g>
 </g>
</svg>
