<?xml version="1.0" encoding="UTF-8"?>
<!DOCTYPE svg PUBLIC "-//W3C//DTD SVG 1.1//EN" "http://www.w3.org/Graphics/SVG/1.1/DTD/svg11.dtd">
<!-- Creator: CorelDRAW 2018 (64-Bit) -->
<svg xmlns="http://www.w3.org/2000/svg" xml:space="preserve" width="66.3218mm" height="66.3218mm" version="1.1" shape-rendering="geometricPrecision" text-rendering="geometricPrecision" image-rendering="optimizeQuality" fill-rule="evenodd" clip-rule="evenodd"
viewBox="0 0 6300.37 6300.37"
 xmlns:xlink="http://www.w3.org/1999/xlink">
 <defs>
    <linearGradient id="id0" gradientUnits="userSpaceOnUse" x1="409.92" y1="3710.62" x2="8067.26" y2="3492.62">
     <stop offset="0" stop-opacity="1" stop-color="#2A368A"/>
     <stop offset="1" stop-opacity="1" stop-color="#11946C"/>
    </linearGradient>
 </defs>
 <g id="Layer_x0020_1">
  <metadata id="CorelCorpID_0Corel-Layer"/>
  <g id="_1847389188448">
   <polygon fill="url(#id0)" fill-rule="nonzero" stroke="#332C2B" stroke-width="19" stroke-miterlimit="22.9256" points="1622.45,504.12 2391.08,802.34 2471.96,618.92 2633.66,737.31 3150.19,94.75 3666.71,737.31 3828.42,618.92 3909.29,802.34 4677.92,504.12 4803.94,1318.84 5003.2,1297.18 4981.53,1496.43 5796.25,1622.45 5498.04,2391.08 5681.45,2471.96 5563.06,2633.66 6205.62,3150.19 5563.06,3666.71 5681.45,3828.42 5498.04,3909.29 5796.25,4677.92 4981.53,4803.94 5003.2,5003.2 4803.94,4981.53 4677.92,5796.25 3909.29,5498.04 3828.42,5681.45 3666.71,5563.06 3150.19,6205.62 2633.66,5563.06 2471.96,5681.45 2391.08,5498.04 1622.45,5796.25 1496.43,4981.53 1297.18,5003.2 1318.84,4803.94 504.12,4677.92 802.34,3909.29 618.92,3828.42 737.31,3666.71 94.75,3150.19 737.31,2633.66 618.92,2471.96 802.34,2391.08 504.12,1622.45 1318.84,1496.43 1297.18,1297.18 1496.43,1318.84 "/>
   <g>
    <path fill="#FEFEFE" fill-rule="nonzero" d="M1389.72 1389.72l139.22 -900.07c7.99,-51.64 56.34,-87.04 107.98,-79.05 6.86,1.06 13.43,2.84 19.65,5.24l849.13 329.4 570.64 -709.87c32.78,-40.77 92.44,-47.25 133.21,-14.47 5.9,4.74 11.08,10.05 15.52,15.78l569.58 708.56 849.11 -329.45c48.77,-18.85 103.61,5.41 122.46,54.18 2.98,7.72 4.88,15.6 5.79,23.45l138.63 896.29 900.07 139.22c51.64,7.99 87.04,56.34 79.05,107.98 -1.06,6.86 -2.84,13.43 -5.24,19.65l-329.4 849.13 709.87 570.64c40.77,32.78 47.25,92.44 14.47,133.21 -4.74,5.9 -10.05,11.08 -15.78,15.52l-708.56 569.58 329.45 849.11c18.85,48.77 -5.41,103.61 -54.18,122.46 -7.72,2.98 -15.6,4.88 -23.45,5.79l-896.29 138.63 -139.22 900.07c-7.99,51.64 -56.34,87.04 -107.98,79.05 -6.86,-1.06 -13.43,-2.84 -19.65,-5.24l-849.13 -329.4 -570.64 709.87c-32.78,40.77 -92.44,47.25 -133.21,14.47 -5.9,-4.74 -11.08,-10.05 -15.52,-15.78l-569.58 -708.56 -849.11 329.45c-48.77,18.85 -103.61,-5.41 -122.46,-54.18 -2.98,-7.72 -4.88,-15.6 -5.79,-23.45l-138.63 -896.29 -900.07 -139.22c-51.64,-7.99 -87.04,-56.34 -79.05,-107.98 1.06,-6.86 2.84,-13.43 5.24,-19.65l329.4 -849.13 -709.87 -570.64c-40.77,-32.78 -47.25,-92.44 -14.47,-133.21 4.74,-5.9 10.05,-11.08 15.78,-15.52l708.56 -569.58 -329.45 -849.11c-18.85,-48.77 5.41,-103.61 54.18,-122.46 7.72,-2.98 15.6,-4.88 23.45,-5.79l896.29 -138.63zm308.25 -754.74l-131.54 850.39c-5.47,40.46 -36.92,74.23 -79.31,80.79l-852.13 131.81 310.54 800.36c16.64,38.21 6.52,84.29 -27.52,111.66l-672.01 540.2 672.01 540.2c31.25,25.17 44.18,68.56 28.95,107.98l-311.96 804.04 850.39 131.54c40.46,5.47 74.23,36.92 80.79,79.31l131.81 852.13 800.36 -310.54c38.21,-16.64 84.29,-6.52 111.66,27.52l540.2 672.01 540.2 -672.01c25.17,-31.25 68.56,-44.18 107.98,-28.95l804.04 311.96 131.54 -850.39c5.47,-40.46 36.92,-74.23 79.31,-80.79l852.13 -131.81 -310.54 -800.36c-16.64,-38.21 -6.52,-84.29 27.52,-111.66l672.01 -540.2 -672.01 -540.2c-31.25,-25.17 -44.18,-68.56 -28.95,-107.98l311.96 -804.04 -850.39 -131.54c-40.46,-5.47 -74.23,-36.92 -80.79,-79.31l-131.81 -852.13 -800.36 310.54c-38.21,16.64 -84.29,6.52 -111.66,-27.52l-540.2 -672.01 -540.2 672.01c-25.17,31.25 -68.56,44.18 -107.98,28.95l-804.04 -311.96z"/>
    <path fill="#FEFEFE" fill-rule="nonzero" d="M997.98 3150.19l-455.5 -622.2c-30.94,-42.22 -21.8,-101.53 20.41,-132.47 5.67,-4.16 11.67,-7.59 17.85,-10.32l705.56 -311.19 -83.39 -766.81c-5.53,-52.05 32.18,-98.75 84.23,-104.28 7.46,-0.79 14.81,-0.69 21.94,0.21l764.91 83.18 311.12 -705.6c21.1,-47.95 77.1,-69.72 125.05,-48.62 7.91,3.48 15.1,7.91 21.51,13.1l618.51 452.79 622.2 -455.5c42.22,-30.94 101.53,-21.8 132.47,20.41 4.16,5.67 7.59,11.67 10.32,17.85l311.19 705.56 766.81 -83.39c52.05,-5.53 98.75,32.18 104.28,84.23 0.79,7.46 0.69,14.81 -0.21,21.94l-83.18 764.91 705.6 311.12c47.95,21.1 69.72,77.1 48.62,125.05 -3.48,7.91 -7.91,15.1 -13.1,21.51l-452.79 618.51 455.5 622.2c30.94,42.22 21.8,101.53 -20.41,132.47 -5.67,4.16 -11.67,7.59 -17.85,10.32l-705.56 311.19 83.39 766.81c5.53,52.05 -32.18,98.75 -84.23,104.28 -7.46,0.79 -14.81,0.69 -21.94,-0.21l-764.91 -83.18 -311.12 705.6c-21.1,47.95 -77.1,69.72 -125.05,48.62 -7.91,-3.48 -15.1,-7.91 -21.51,-13.1l-618.51 -452.79 -622.2 455.5c-42.22,30.94 -101.53,21.8 -132.47,-20.41 -4.16,-5.67 -7.59,-11.67 -10.32,-17.85l-311.19 -705.56 -766.81 83.39c-52.05,5.53 -98.75,-32.18 -104.28,-84.23 -0.79,-7.46 -0.69,-14.81 0.21,-21.94l83.18 -764.91 -705.6 -311.12c-47.95,-21.1 -69.72,-77.1 -48.62,-125.05 3.48,-7.91 7.91,-15.1 13.1,-21.51l452.79 -618.51zm-232.88 -639l425.74 581.53c24.82,32.56 26.48,78.8 1.04,113.49l-426.78 582.97 661.16 291.53c36.73,16.23 60.5,54.79 56.04,96.86l-78.15 718.65 714.05 -77.65c41.48,-6.5 83.75,15.29 101.46,55.54l291.53 661.16 581.53 -425.74c32.56,-24.82 78.8,-26.48 113.49,-1.04l582.97 426.78 291.53 -661.16c16.23,-36.73 54.79,-60.5 96.86,-56.04l718.65 78.15 -77.65 -714.05c-6.5,-41.48 15.29,-83.75 55.54,-101.46l661.16 -291.53 -425.74 -581.53c-24.82,-32.56 -26.48,-78.8 -1.04,-113.49l426.78 -582.97 -661.16 -291.53c-36.73,-16.23 -60.5,-54.79 -56.04,-96.86l78.15 -718.65 -714.05 77.65c-41.48,6.5 -83.75,-15.29 -101.46,-55.54l-291.53 -661.16 -581.53 425.74c-32.56,24.82 -78.8,26.48 -113.49,1.04l-582.97 -426.78 -291.53 661.16c-16.23,36.73 -54.79,60.5 -96.86,56.04l-718.65 -78.15 77.65 714.05c6.5,41.48 -15.29,83.75 -55.54,101.46l-661.16 291.53z"/>
    <path fill="#FEFEFE" fill-rule="nonzero" d="M1867.25 1867.25l96.57 -624.37c7.99,-51.64 56.34,-87.04 107.98,-79.05 6.86,1.06 13.43,2.84 19.65,5.24l589.05 228.5 395.83 -492.44c32.78,-40.77 92.44,-47.25 133.21,-14.47 5.9,4.74 11.08,10.05 15.52,15.78l394.78 491.13 589.03 -228.54c48.77,-18.85 103.61,5.41 122.46,54.18 2.98,7.72 4.88,15.6 5.79,23.45l95.99 620.59 624.37 96.57c51.64,7.99 87.04,56.34 79.05,107.98 -1.06,6.86 -2.84,13.43 -5.24,19.65l-228.5 589.05 492.44 395.83c40.77,32.78 47.25,92.44 14.47,133.21 -4.74,5.9 -10.05,11.08 -15.78,15.52l-491.13 394.78 228.54 589.03c18.85,48.77 -5.41,103.61 -54.18,122.46 -7.72,2.98 -15.6,4.88 -23.45,5.79l-620.59 95.99 -96.57 624.37c-7.99,51.64 -56.34,87.04 -107.98,79.05 -6.86,-1.06 -13.43,-2.84 -19.65,-5.24l-589.05 -228.5 -395.83 492.44c-32.78,40.77 -92.44,47.25 -133.21,14.47 -5.9,-4.74 -11.08,-10.05 -15.52,-15.78l-394.78 -491.13 -589.03 228.54c-48.77,18.85 -103.61,-5.41 -122.46,-54.18 -2.98,-7.72 -4.88,-15.6 -5.79,-23.45l-95.99 -620.59 -624.37 -96.57c-51.64,-7.99 -87.04,-56.34 -79.05,-107.98 1.06,-6.86 2.84,-13.43 5.24,-19.65l228.5 -589.05 -492.44 -395.83c-40.77,-32.78 -47.25,-92.44 -14.47,-133.21 4.74,-5.9 10.05,-11.08 15.78,-15.52l491.13 -394.78 -228.54 -589.03c-18.85,-48.77 5.41,-103.61 54.18,-122.46 7.72,-2.98 15.6,-4.88 23.45,-5.79l620.59 -95.99zm265.6 -479.03l-88.9 574.68c-5.47,40.45 -36.92,74.22 -79.31,80.79l-576.42 89.16 209.62 540.28c16.64,38.21 6.52,84.29 -27.52,111.66l-454.57 365.4 454.57 365.4c31.25,25.17 44.18,68.56 28.95,107.98l-211.05 543.95 574.68 88.9c40.45,5.47 74.22,36.92 80.79,79.31l89.16 576.42 540.28 -209.62c38.21,-16.64 84.29,-6.52 111.66,27.52l365.4 454.57 365.4 -454.57c25.17,-31.25 68.56,-44.18 107.98,-28.95l543.95 211.05 88.9 -574.68c5.47,-40.45 36.92,-74.23 79.31,-80.79l576.42 -89.16 -209.62 -540.28c-16.64,-38.21 -6.52,-84.29 27.52,-111.66l454.57 -365.4 -454.57 -365.4c-31.25,-25.17 -44.18,-68.56 -28.95,-107.98l211.05 -543.95 -574.68 -88.9c-40.45,-5.47 -74.23,-36.92 -80.79,-79.31l-89.16 -576.42 -540.28 209.62c-38.21,16.64 -84.29,6.52 -111.66,-27.52l-365.4 -454.57 -365.4 454.57c-25.17,31.25 -68.56,44.18 -107.98,28.95l-543.95 -211.05z"/>
    <path fill="#FEFEFE" fill-rule="nonzero" d="M1673.32 3150.19l-290.69 -397.1c-30.94,-42.22 -21.8,-101.53 20.41,-132.47 5.67,-4.16 11.67,-7.59 17.85,-10.32l450.28 -198.63 -53.23 -489.45c-5.53,-52.05 32.18,-98.75 84.23,-104.28 7.46,-0.79 14.81,-0.69 21.94,0.21l487.55 53.02 198.55 -450.31c21.1,-47.95 77.1,-69.72 125.05,-48.62 7.9,3.48 15.1,7.91 21.51,13.1l393.4 287.98 397.1 -290.69c42.22,-30.94 101.53,-21.8 132.47,20.41 4.16,5.67 7.59,11.67 10.32,17.85l198.63 450.28 489.45 -53.23c52.05,-5.53 98.75,32.18 104.28,84.23 0.79,7.46 0.69,14.81 -0.21,21.94l-53.02 487.55 450.31 198.55c47.95,21.1 69.72,77.1 48.62,125.05 -3.48,7.9 -7.91,15.1 -13.1,21.51l-287.98 393.4 290.69 397.1c30.94,42.22 21.8,101.53 -20.41,132.47 -5.67,4.16 -11.67,7.59 -17.85,10.32l-450.28 198.63 53.23 489.45c5.53,52.05 -32.18,98.75 -84.23,104.28 -7.46,0.79 -14.81,0.69 -21.94,-0.21l-487.55 -53.02 -198.55 450.31c-21.1,47.95 -77.1,69.72 -125.05,48.62 -7.9,-3.48 -15.1,-7.91 -21.51,-13.1l-393.4 -287.98 -397.1 290.69c-42.22,30.94 -101.53,21.8 -132.47,-20.41 -4.16,-5.67 -7.59,-11.67 -10.32,-17.85l-198.63 -450.28 -489.45 53.23c-52.05,5.53 -98.75,-32.18 -104.28,-84.23 -0.79,-7.46 -0.69,-14.81 0.21,-21.94l53.02 -487.55 -450.31 -198.55c-47.95,-21.1 -69.72,-77.1 -48.62,-125.05 3.48,-7.9 7.91,-15.1 13.1,-21.51l287.98 -393.4zm-68.07 -413.89l260.93 356.43c24.82,32.56 26.48,78.8 1.04,113.49l-261.97 357.86 405.87 178.96c36.73,16.23 60.5,54.79 56.04,96.86l-47.99 441.3 436.7 -47.49c41.48,-6.5 83.75,15.29 101.46,55.54l178.96 405.87 356.43 -260.93c32.56,-24.82 78.8,-26.48 113.49,-1.04l357.86 261.97 178.96 -405.87c16.23,-36.73 54.79,-60.5 96.86,-56.04l441.3 47.99 -47.49 -436.7c-6.5,-41.48 15.29,-83.75 55.54,-101.46l405.87 -178.96 -260.93 -356.43c-24.82,-32.56 -26.48,-78.8 -1.04,-113.49l261.97 -357.86 -405.87 -178.96c-36.73,-16.23 -60.5,-54.79 -56.04,-96.86l47.99 -441.3 -436.7 47.49c-41.48,6.5 -83.75,-15.29 -101.46,-55.54l-178.96 -405.87 -356.43 260.93c-32.56,24.82 -78.8,26.48 -113.49,1.04l-357.86 -261.97 -178.96 405.87c-16.23,36.73 -54.79,60.5 -96.86,56.04l-441.3 -47.99 47.49 436.7c6.5,41.48 -15.29,83.75 -55.54,101.46l-405.87 178.96z"/>
    <path fill="#FEFEFE" fill-rule="nonzero" d="M2344.79 2344.79l53.93 -348.67c7.99,-51.64 56.34,-87.04 107.98,-79.05 6.86,1.06 13.43,2.84 19.65,5.24l328.94 127.57 221.05 -274.99c32.78,-40.77 92.44,-47.25 133.21,-14.47 5.9,4.74 11.08,10.05 15.52,15.78l219.99 273.68 328.92 -127.62c48.77,-18.85 103.61,5.41 122.46,54.18 2.98,7.72 4.88,15.6 5.79,23.45l53.34 344.89 348.67 53.93c51.64,7.99 87.04,56.34 79.05,107.98 -1.06,6.86 -2.84,13.43 -5.24,19.65l-127.57 328.94 274.99 221.05c40.77,32.78 47.25,92.44 14.47,133.21 -4.74,5.9 -10.05,11.08 -15.78,15.52l-273.68 219.99 127.62 328.92c18.85,48.77 -5.41,103.61 -54.18,122.46 -7.72,2.98 -15.6,4.88 -23.45,5.79l-344.89 53.34 -53.93 348.67c-7.99,51.64 -56.34,87.04 -107.98,79.05 -6.86,-1.06 -13.43,-2.84 -19.65,-5.24l-328.94 -127.57 -221.05 274.99c-32.78,40.77 -92.44,47.25 -133.21,14.47 -5.9,-4.74 -11.08,-10.05 -15.52,-15.78l-219.99 -273.68 -328.92 127.62c-48.77,18.85 -103.61,-5.41 -122.46,-54.18 -2.98,-7.72 -4.88,-15.6 -5.79,-23.45l-53.34 -344.89 -348.67 -53.93c-51.64,-7.99 -87.04,-56.34 -79.05,-107.98 1.06,-6.86 2.84,-13.43 5.24,-19.65l127.57 -328.94 -274.99 -221.05c-40.77,-32.78 -47.25,-92.44 -14.47,-133.21 4.74,-5.9 10.05,-11.08 15.78,-15.52l273.68 -219.99 -127.62 -328.92c-18.85,-48.77 5.41,-103.61 54.18,-122.46 7.72,-2.98 15.6,-4.88 23.45,-5.79l344.89 -53.34zm222.96 -203.34l-46.25 298.99c-5.47,40.46 -36.92,74.23 -79.31,80.79l-300.73 46.52 108.71 280.17c16.64,38.21 6.52,84.29 -27.52,111.66l-237.12 190.61 237.12 190.61c31.25,25.17 44.18,68.56 28.95,107.98l-110.13 283.84 298.99 46.25c40.46,5.47 74.23,36.92 80.79,79.31l46.52 300.73 280.17 -108.71c38.21,-16.64 84.29,-6.52 111.66,27.52l190.61 237.12 190.61 -237.12c25.17,-31.25 68.56,-44.18 107.98,-28.95l283.84 110.13 46.25 -298.99c5.47,-40.46 36.92,-74.23 79.31,-80.79l300.73 -46.52 -108.71 -280.17c-16.64,-38.21 -6.52,-84.29 27.52,-111.66l237.12 -190.61 -237.12 -190.61c-31.25,-25.17 -44.18,-68.56 -28.95,-107.98l110.13 -283.84 -298.99 -46.25c-40.46,-5.47 -74.23,-36.92 -80.79,-79.31l-46.52 -300.73 -280.17 108.71c-38.21,16.64 -84.29,6.52 -111.66,-27.52l-190.61 -237.12 -190.61 237.12c-25.17,31.25 -68.56,44.18 -107.98,28.95l-283.84 -110.13z"/>
   </g>
   <g>
    <polygon fill="#FFF000" points="2019.17,2019.17 2059.38,2388.94 2344.79,2344.79 2388.94,2059.38 "/>
    <polygon fill="#FFF000" points="2736.29,1605.25 2586.25,1945.55 2855.3,2049.89 3036.23,1824.82 "/>
    <polygon fill="#FFF000" points="3564.08,1605.25 3264.16,1824.82 3445.08,2049.89 3714.11,1945.51 "/>
    <polygon fill="#FFF000" points="4281.2,2019.17 3911.44,2059.38 3955.58,2344.79 4240.99,2388.94 "/>
    <polygon fill="#FFF000" points="4695.12,2736.29 4354.83,2586.25 4250.48,2855.3 4475.56,3036.23 "/>
    <polygon fill="#FFF000" points="4695.12,3564.08 4475.56,3264.16 4250.48,3445.08 4354.86,3714.11 "/>
    <polygon fill="#FFF000" points="4281.2,4281.2 4240.99,3911.44 3955.58,3955.58 3911.44,4240.99 "/>
    <polygon fill="#FFF000" points="3714.13,4354.83 3445.08,4250.48 3264.15,4475.56 3564.08,4695.12 "/>
    <polygon fill="#FFF000" points="3036.22,4475.56 2855.3,4250.48 2586.27,4354.86 2736.29,4695.12 "/>
    <polygon fill="#FFF000" points="2388.94,4240.99 2344.79,3955.58 2059.38,3911.44 2019.17,4281.2 "/>
    <polygon fill="#FFF000" points="1945.55,3714.13 2049.89,3445.08 1824.82,3264.15 1605.25,3564.08 "/>
    <polygon fill="#FFF000" points="1824.82,3036.22 2049.89,2855.3 1945.51,2586.27 1605.25,2736.29 "/>
   </g>
   <g>
    <path fill="#FDD100" d="M1364.78 2706.87c-2.37,-23.03 3.74,-46.49 17.59,-65.54l-133.3 -343.55 -325.66 143.6 22.1 56.94c16.64,38.21 6.52,84.29 -27.52,111.66l-50.71 40.76 210.17 287.09 287.33 -230.97z"/>
    <path fill="#FDD100" d="M1364.69 3593.42l-287.24 -230.89 -210.17 287.09 50.72 40.76c31.25,25.17 44.18,68.56 28.95,107.98l-23.52 60.62 325.69 143.61 133.23 -343.45c-13.63,-18.79 -20.12,-42.23 -17.65,-65.72z"/>
    <path fill="#FDD100" d="M1825.55 4426.67l-364.21 -56.33 -38.49 353.94 62.53 9.67c40.46,5.47 74.23,36.92 80.79,79.31l9.94 64.27 353.94 -38.49 -56.33 -364.23c-21.23,-9.45 -38.57,-26.53 -48.15,-48.13z"/>
    <path fill="#FDD100" d="M2641.34 4918l-343.55 133.3 143.6 325.66 56.94 -22.1c38.21,-16.64 84.29,-6.52 111.66,27.52l40.76 50.71 287.09 -210.17 -230.97 -287.33c-23.03,2.37 -46.49,-3.74 -65.54,-17.59z"/>
    <path fill="#FDD100" d="M3593.42 4935.68l-230.89 287.24 287.09 210.17 40.76 -50.72c25.17,-31.25 68.56,-44.18 107.98,-28.95l60.62 23.52 143.61 -325.69 -343.45 -133.23c-18.79,13.63 -42.23,20.12 -65.72,17.65z"/>
    <path fill="#FDD100" d="M4426.67 4474.83l-56.33 364.21 353.94 38.49 9.67 -62.53c5.47,-40.46 36.92,-74.23 79.31,-80.79l64.27 -9.94 -38.49 -353.94 -364.23 56.33c-9.45,21.23 -26.53,38.57 -48.13,48.15z"/>
    <path fill="#FDD100" d="M4918 3659.04l133.3 343.55 325.66 -143.6 -22.1 -56.94c-16.64,-38.21 -6.52,-84.29 27.52,-111.66l50.71 -40.76 -210.17 -287.09 -287.33 230.97c2.37,23.03 -3.74,46.49 -17.59,65.54z"/>
    <path fill="#FDD100" d="M4935.68 2706.95l287.24 230.89 210.17 -287.09 -50.72 -40.76c-31.25,-25.17 -44.18,-68.56 -28.95,-107.98l23.52 -60.62 -325.69 -143.61 -133.23 343.45c13.63,18.79 20.12,42.23 17.65,65.72z"/>
    <path fill="#FDD100" d="M4474.83 1873.7l364.21 56.33 38.49 -353.94 -62.53 -9.67c-40.46,-5.47 -74.23,-36.92 -80.79,-79.31l-9.94 -64.27 -353.94 38.49 56.33 364.23c21.23,9.45 38.57,26.53 48.15,48.13z"/>
    <path fill="#FDD100" d="M3659.04 1382.38l343.55 -133.3 -143.6 -325.66 -56.94 22.1c-38.21,16.64 -84.29,6.52 -111.66,-27.52l-40.76 -50.71 -287.09 210.17 230.97 287.33c23.03,-2.37 46.49,3.74 65.54,17.59z"/>
    <path fill="#FDD100" d="M2706.95 1364.69l230.89 -287.24 -287.09 -210.17 -40.76 50.72c-25.17,31.25 -68.56,44.18 -107.98,28.95l-60.62 -23.52 -143.61 325.69 343.45 133.23c18.79,-13.63 42.23,-20.12 65.72,-17.65z"/>
    <path fill="#FDD100" d="M1873.7 1825.55l56.33 -364.21 -353.94 -38.49 -9.67 62.53c-5.47,40.46 -36.92,74.23 -79.31,80.79l-64.27 9.94 38.49 353.94 364.23 -56.33c9.45,-21.23 26.53,-38.57 48.13,-48.15z"/>
   </g>
  </g>
 </g>
</svg>
